<?xml version="1.0" encoding="utf-8" standalone="no"?>
<!DOCTYPE svg PUBLIC "-//W3C//DTD SVG 1.1//EN"
  "http://www.w3.org/Graphics/SVG/1.1/DTD/svg11.dtd">
<svg xmlns:xlink="http://www.w3.org/1999/xlink" width="432pt" height="288pt" viewBox="0 0 432 288" xmlns="http://www.w3.org/2000/svg" version="1.1">
 <metadata>
  <rdf:RDF xmlns:dc="http://purl.org/dc/elements/1.1/" xmlns:cc="http://creativecommons.org/ns#" xmlns:rdf="http://www.w3.org/1999/02/22-rdf-syntax-ns#">
   <cc:Work>
    <dc:type rdf:resource="http://purl.org/dc/dcmitype/StillImage"/>
    <dc:date>2025-11-10T12:55:32.342726</dc:date>
    <dc:format>image/svg+xml</dc:format>
    <dc:creator>
     <cc:Agent>
      <dc:title>Matplotlib v3.10.7, https://matplotlib.org/</dc:title>
     </cc:Agent>
    </dc:creator>
   </cc:Work>
  </rdf:RDF>
 </metadata>
 <defs>
  <style type="text/css">*{stroke-linejoin: round; stroke-linecap: butt}</style>
 </defs>
 <g id="figure_1">
  <g id="patch_1">
   <path d="M 0 288 
L 432 288 
L 432 0 
L 0 0 
z
" style="fill: #ffffff"/>
  </g>
  <g id="axes_1">
   <g id="patch_2">
    <path d="M 44.57 246.04 
L 421.2 246.04 
L 421.2 26.88 
L 44.57 26.88 
z
" style="fill: #ffffff"/>
   </g>
   <g id="matplotlib.axis_1">
    <g id="xtick_1">
     <g id="line2d_1">
      <defs>
       <path id="m7d6faac3cc" d="M 0 0 
L 0 3.5 
" style="stroke: #000000; stroke-width: 0.8"/>
      </defs>
      <g>
       <use xlink:href="#m7d6faac3cc" x="61.689545" y="246.04" style="stroke: #000000; stroke-width: 0.8"/>
      </g>
     </g>
     <g id="text_1">
      <!-- 0 -->
      <g transform="translate(58.508295 260.638438) scale(0.1 -0.1)">
       <defs>
        <path id="DejaVuSans-30" d="M 2034 4250 
Q 1547 4250 1301 3770 
Q 1056 3291 1056 2328 
Q 1056 1369 1301 889 
Q 1547 409 2034 409 
Q 2525 409 2770 889 
Q 3016 1369 3016 2328 
Q 3016 3291 2770 3770 
Q 2525 4250 2034 4250 
z
M 2034 4750 
Q 2819 4750 3233 4129 
Q 3647 3509 3647 2328 
Q 3647 1150 3233 529 
Q 2819 -91 2034 -91 
Q 1250 -91 836 529 
Q 422 1150 422 2328 
Q 422 3509 836 4129 
Q 1250 4750 2034 4750 
z
" transform="scale(0.015625)"/>
       </defs>
       <use xlink:href="#DejaVuSans-30"/>
      </g>
     </g>
    </g>
    <g id="xtick_2">
     <g id="line2d_2">
      <g>
       <use xlink:href="#m7d6faac3cc" x="104.703479" y="246.04" style="stroke: #000000; stroke-width: 0.8"/>
      </g>
     </g>
     <g id="text_2">
      <!-- 25 -->
      <g transform="translate(98.340979 260.638438) scale(0.1 -0.1)">
       <defs>
        <path id="DejaVuSans-32" d="M 1228 531 
L 3431 531 
L 3431 0 
L 469 0 
L 469 531 
Q 828 903 1448 1529 
Q 2069 2156 2228 2338 
Q 2531 2678 2651 2914 
Q 2772 3150 2772 3378 
Q 2772 3750 2511 3984 
Q 2250 4219 1831 4219 
Q 1534 4219 1204 4116 
Q 875 4013 500 3803 
L 500 4441 
Q 881 4594 1212 4672 
Q 1544 4750 1819 4750 
Q 2544 4750 2975 4387 
Q 3406 4025 3406 3419 
Q 3406 3131 3298 2873 
Q 3191 2616 2906 2266 
Q 2828 2175 2409 1742 
Q 1991 1309 1228 531 
z
" transform="scale(0.015625)"/>
        <path id="DejaVuSans-35" d="M 691 4666 
L 3169 4666 
L 3169 4134 
L 1269 4134 
L 1269 2991 
Q 1406 3038 1543 3061 
Q 1681 3084 1819 3084 
Q 2600 3084 3056 2656 
Q 3513 2228 3513 1497 
Q 3513 744 3044 326 
Q 2575 -91 1722 -91 
Q 1428 -91 1123 -41 
Q 819 9 494 109 
L 494 744 
Q 775 591 1075 516 
Q 1375 441 1709 441 
Q 2250 441 2565 725 
Q 2881 1009 2881 1497 
Q 2881 1984 2565 2268 
Q 2250 2553 1709 2553 
Q 1456 2553 1204 2497 
Q 953 2441 691 2322 
L 691 4666 
z
" transform="scale(0.015625)"/>
       </defs>
       <use xlink:href="#DejaVuSans-32"/>
       <use xlink:href="#DejaVuSans-35" transform="translate(63.623047 0)"/>
      </g>
     </g>
    </g>
    <g id="xtick_3">
     <g id="line2d_3">
      <g>
       <use xlink:href="#m7d6faac3cc" x="147.717412" y="246.04" style="stroke: #000000; stroke-width: 0.8"/>
      </g>
     </g>
     <g id="text_3">
      <!-- 50 -->
      <g transform="translate(141.354912 260.638438) scale(0.1 -0.1)">
       <use xlink:href="#DejaVuSans-35"/>
       <use xlink:href="#DejaVuSans-30" transform="translate(63.623047 0)"/>
      </g>
     </g>
    </g>
    <g id="xtick_4">
     <g id="line2d_4">
      <g>
       <use xlink:href="#m7d6faac3cc" x="190.731345" y="246.04" style="stroke: #000000; stroke-width: 0.8"/>
      </g>
     </g>
     <g id="text_4">
      <!-- 75 -->
      <g transform="translate(184.368845 260.638438) scale(0.1 -0.1)">
       <defs>
        <path id="DejaVuSans-37" d="M 525 4666 
L 3525 4666 
L 3525 4397 
L 1831 0 
L 1172 0 
L 2766 4134 
L 525 4134 
L 525 4666 
z
" transform="scale(0.015625)"/>
       </defs>
       <use xlink:href="#DejaVuSans-37"/>
       <use xlink:href="#DejaVuSans-35" transform="translate(63.623047 0)"/>
      </g>
     </g>
    </g>
    <g id="xtick_5">
     <g id="line2d_5">
      <g>
       <use xlink:href="#m7d6faac3cc" x="233.745279" y="246.04" style="stroke: #000000; stroke-width: 0.8"/>
      </g>
     </g>
     <g id="text_5">
      <!-- 100 -->
      <g transform="translate(224.201529 260.638438) scale(0.1 -0.1)">
       <defs>
        <path id="DejaVuSans-31" d="M 794 531 
L 1825 531 
L 1825 4091 
L 703 3866 
L 703 4441 
L 1819 4666 
L 2450 4666 
L 2450 531 
L 3481 531 
L 3481 0 
L 794 0 
L 794 531 
z
" transform="scale(0.015625)"/>
       </defs>
       <use xlink:href="#DejaVuSans-31"/>
       <use xlink:href="#DejaVuSans-30" transform="translate(63.623047 0)"/>
       <use xlink:href="#DejaVuSans-30" transform="translate(127.246094 0)"/>
      </g>
     </g>
    </g>
    <g id="xtick_6">
     <g id="line2d_6">
      <g>
       <use xlink:href="#m7d6faac3cc" x="276.759212" y="246.04" style="stroke: #000000; stroke-width: 0.8"/>
      </g>
     </g>
     <g id="text_6">
      <!-- 125 -->
      <g transform="translate(267.215462 260.638438) scale(0.1 -0.1)">
       <use xlink:href="#DejaVuSans-31"/>
       <use xlink:href="#DejaVuSans-32" transform="translate(63.623047 0)"/>
       <use xlink:href="#DejaVuSans-35" transform="translate(127.246094 0)"/>
      </g>
     </g>
    </g>
    <g id="xtick_7">
     <g id="line2d_7">
      <g>
       <use xlink:href="#m7d6faac3cc" x="319.773145" y="246.04" style="stroke: #000000; stroke-width: 0.8"/>
      </g>
     </g>
     <g id="text_7">
      <!-- 150 -->
      <g transform="translate(310.229395 260.638438) scale(0.1 -0.1)">
       <use xlink:href="#DejaVuSans-31"/>
       <use xlink:href="#DejaVuSans-35" transform="translate(63.623047 0)"/>
       <use xlink:href="#DejaVuSans-30" transform="translate(127.246094 0)"/>
      </g>
     </g>
    </g>
    <g id="xtick_8">
     <g id="line2d_8">
      <g>
       <use xlink:href="#m7d6faac3cc" x="362.787079" y="246.04" style="stroke: #000000; stroke-width: 0.8"/>
      </g>
     </g>
     <g id="text_8">
      <!-- 175 -->
      <g transform="translate(353.243329 260.638438) scale(0.1 -0.1)">
       <use xlink:href="#DejaVuSans-31"/>
       <use xlink:href="#DejaVuSans-37" transform="translate(63.623047 0)"/>
       <use xlink:href="#DejaVuSans-35" transform="translate(127.246094 0)"/>
      </g>
     </g>
    </g>
    <g id="xtick_9">
     <g id="line2d_9">
      <g>
       <use xlink:href="#m7d6faac3cc" x="405.801012" y="246.04" style="stroke: #000000; stroke-width: 0.8"/>
      </g>
     </g>
     <g id="text_9">
      <!-- 200 -->
      <g transform="translate(396.257262 260.638438) scale(0.1 -0.1)">
       <use xlink:href="#DejaVuSans-32"/>
       <use xlink:href="#DejaVuSans-30" transform="translate(63.623047 0)"/>
       <use xlink:href="#DejaVuSans-30" transform="translate(127.246094 0)"/>
      </g>
     </g>
    </g>
    <g id="text_10">
     <!-- Epoch -->
     <g transform="translate(217.574063 274.316562) scale(0.1 -0.1)">
      <defs>
       <path id="DejaVuSans-45" d="M 628 4666 
L 3578 4666 
L 3578 4134 
L 1259 4134 
L 1259 2753 
L 3481 2753 
L 3481 2222 
L 1259 2222 
L 1259 531 
L 3634 531 
L 3634 0 
L 628 0 
L 628 4666 
z
" transform="scale(0.015625)"/>
       <path id="DejaVuSans-70" d="M 1159 525 
L 1159 -1331 
L 581 -1331 
L 581 3500 
L 1159 3500 
L 1159 2969 
Q 1341 3281 1617 3432 
Q 1894 3584 2278 3584 
Q 2916 3584 3314 3078 
Q 3713 2572 3713 1747 
Q 3713 922 3314 415 
Q 2916 -91 2278 -91 
Q 1894 -91 1617 61 
Q 1341 213 1159 525 
z
M 3116 1747 
Q 3116 2381 2855 2742 
Q 2594 3103 2138 3103 
Q 1681 3103 1420 2742 
Q 1159 2381 1159 1747 
Q 1159 1113 1420 752 
Q 1681 391 2138 391 
Q 2594 391 2855 752 
Q 3116 1113 3116 1747 
z
" transform="scale(0.015625)"/>
       <path id="DejaVuSans-6f" d="M 1959 3097 
Q 1497 3097 1228 2736 
Q 959 2375 959 1747 
Q 959 1119 1226 758 
Q 1494 397 1959 397 
Q 2419 397 2687 759 
Q 2956 1122 2956 1747 
Q 2956 2369 2687 2733 
Q 2419 3097 1959 3097 
z
M 1959 3584 
Q 2709 3584 3137 3096 
Q 3566 2609 3566 1747 
Q 3566 888 3137 398 
Q 2709 -91 1959 -91 
Q 1206 -91 779 398 
Q 353 888 353 1747 
Q 353 2609 779 3096 
Q 1206 3584 1959 3584 
z
" transform="scale(0.015625)"/>
       <path id="DejaVuSans-63" d="M 3122 3366 
L 3122 2828 
Q 2878 2963 2633 3030 
Q 2388 3097 2138 3097 
Q 1578 3097 1268 2742 
Q 959 2388 959 1747 
Q 959 1106 1268 751 
Q 1578 397 2138 397 
Q 2388 397 2633 464 
Q 2878 531 3122 666 
L 3122 134 
Q 2881 22 2623 -34 
Q 2366 -91 2075 -91 
Q 1284 -91 818 406 
Q 353 903 353 1747 
Q 353 2603 823 3093 
Q 1294 3584 2113 3584 
Q 2378 3584 2631 3529 
Q 2884 3475 3122 3366 
z
" transform="scale(0.015625)"/>
       <path id="DejaVuSans-68" d="M 3513 2113 
L 3513 0 
L 2938 0 
L 2938 2094 
Q 2938 2591 2744 2837 
Q 2550 3084 2163 3084 
Q 1697 3084 1428 2787 
Q 1159 2491 1159 1978 
L 1159 0 
L 581 0 
L 581 4863 
L 1159 4863 
L 1159 2956 
Q 1366 3272 1645 3428 
Q 1925 3584 2291 3584 
Q 2894 3584 3203 3211 
Q 3513 2838 3513 2113 
z
" transform="scale(0.015625)"/>
      </defs>
      <use xlink:href="#DejaVuSans-45"/>
      <use xlink:href="#DejaVuSans-70" transform="translate(63.183594 0)"/>
      <use xlink:href="#DejaVuSans-6f" transform="translate(126.660156 0)"/>
      <use xlink:href="#DejaVuSans-63" transform="translate(187.841797 0)"/>
      <use xlink:href="#DejaVuSans-68" transform="translate(242.822266 0)"/>
     </g>
    </g>
   </g>
   <g id="matplotlib.axis_2">
    <g id="ytick_1">
     <g id="line2d_10">
      <defs>
       <path id="mf4c0693b1d" d="M 0 0 
L -3.5 0 
" style="stroke: #000000; stroke-width: 0.8"/>
      </defs>
      <g>
       <use xlink:href="#mf4c0693b1d" x="44.57" y="236.567472" style="stroke: #000000; stroke-width: 0.8"/>
      </g>
     </g>
     <g id="text_11">
      <!-- 0 -->
      <g transform="translate(31.2075 240.366691) scale(0.1 -0.1)">
       <use xlink:href="#DejaVuSans-30"/>
      </g>
     </g>
    </g>
    <g id="ytick_2">
     <g id="line2d_11">
      <g>
       <use xlink:href="#mf4c0693b1d" x="44.57" y="199.607715" style="stroke: #000000; stroke-width: 0.8"/>
      </g>
     </g>
     <g id="text_12">
      <!-- 10 -->
      <g transform="translate(24.845 203.406934) scale(0.1 -0.1)">
       <use xlink:href="#DejaVuSans-31"/>
       <use xlink:href="#DejaVuSans-30" transform="translate(63.623047 0)"/>
      </g>
     </g>
    </g>
    <g id="ytick_3">
     <g id="line2d_12">
      <g>
       <use xlink:href="#mf4c0693b1d" x="44.57" y="162.647957" style="stroke: #000000; stroke-width: 0.8"/>
      </g>
     </g>
     <g id="text_13">
      <!-- 20 -->
      <g transform="translate(24.845 166.447176) scale(0.1 -0.1)">
       <use xlink:href="#DejaVuSans-32"/>
       <use xlink:href="#DejaVuSans-30" transform="translate(63.623047 0)"/>
      </g>
     </g>
    </g>
    <g id="ytick_4">
     <g id="line2d_13">
      <g>
       <use xlink:href="#mf4c0693b1d" x="44.57" y="125.6882" style="stroke: #000000; stroke-width: 0.8"/>
      </g>
     </g>
     <g id="text_14">
      <!-- 30 -->
      <g transform="translate(24.845 129.487419) scale(0.1 -0.1)">
       <defs>
        <path id="DejaVuSans-33" d="M 2597 2516 
Q 3050 2419 3304 2112 
Q 3559 1806 3559 1356 
Q 3559 666 3084 287 
Q 2609 -91 1734 -91 
Q 1441 -91 1130 -33 
Q 819 25 488 141 
L 488 750 
Q 750 597 1062 519 
Q 1375 441 1716 441 
Q 2309 441 2620 675 
Q 2931 909 2931 1356 
Q 2931 1769 2642 2001 
Q 2353 2234 1838 2234 
L 1294 2234 
L 1294 2753 
L 1863 2753 
Q 2328 2753 2575 2939 
Q 2822 3125 2822 3475 
Q 2822 3834 2567 4026 
Q 2313 4219 1838 4219 
Q 1578 4219 1281 4162 
Q 984 4106 628 3988 
L 628 4550 
Q 988 4650 1302 4700 
Q 1616 4750 1894 4750 
Q 2613 4750 3031 4423 
Q 3450 4097 3450 3541 
Q 3450 3153 3228 2886 
Q 3006 2619 2597 2516 
z
" transform="scale(0.015625)"/>
       </defs>
       <use xlink:href="#DejaVuSans-33"/>
       <use xlink:href="#DejaVuSans-30" transform="translate(63.623047 0)"/>
      </g>
     </g>
    </g>
    <g id="ytick_5">
     <g id="line2d_14">
      <g>
       <use xlink:href="#mf4c0693b1d" x="44.57" y="88.728443" style="stroke: #000000; stroke-width: 0.8"/>
      </g>
     </g>
     <g id="text_15">
      <!-- 40 -->
      <g transform="translate(24.845 92.527661) scale(0.1 -0.1)">
       <defs>
        <path id="DejaVuSans-34" d="M 2419 4116 
L 825 1625 
L 2419 1625 
L 2419 4116 
z
M 2253 4666 
L 3047 4666 
L 3047 1625 
L 3713 1625 
L 3713 1100 
L 3047 1100 
L 3047 0 
L 2419 0 
L 2419 1100 
L 313 1100 
L 313 1709 
L 2253 4666 
z
" transform="scale(0.015625)"/>
       </defs>
       <use xlink:href="#DejaVuSans-34"/>
       <use xlink:href="#DejaVuSans-30" transform="translate(63.623047 0)"/>
      </g>
     </g>
    </g>
    <g id="ytick_6">
     <g id="line2d_15">
      <g>
       <use xlink:href="#mf4c0693b1d" x="44.57" y="51.768685" style="stroke: #000000; stroke-width: 0.8"/>
      </g>
     </g>
     <g id="text_16">
      <!-- 50 -->
      <g transform="translate(24.845 55.567904) scale(0.1 -0.1)">
       <use xlink:href="#DejaVuSans-35"/>
       <use xlink:href="#DejaVuSans-30" transform="translate(63.623047 0)"/>
      </g>
     </g>
    </g>
    <g id="text_17">
     <!-- Validation Loss (MSE) -->
     <g transform="translate(18.765313 189.845156) rotate(-90) scale(0.1 -0.1)">
      <defs>
       <path id="DejaVuSans-56" d="M 1831 0 
L 50 4666 
L 709 4666 
L 2188 738 
L 3669 4666 
L 4325 4666 
L 2547 0 
L 1831 0 
z
" transform="scale(0.015625)"/>
       <path id="DejaVuSans-61" d="M 2194 1759 
Q 1497 1759 1228 1600 
Q 959 1441 959 1056 
Q 959 750 1161 570 
Q 1363 391 1709 391 
Q 2188 391 2477 730 
Q 2766 1069 2766 1631 
L 2766 1759 
L 2194 1759 
z
M 3341 1997 
L 3341 0 
L 2766 0 
L 2766 531 
Q 2569 213 2275 61 
Q 1981 -91 1556 -91 
Q 1019 -91 701 211 
Q 384 513 384 1019 
Q 384 1609 779 1909 
Q 1175 2209 1959 2209 
L 2766 2209 
L 2766 2266 
Q 2766 2663 2505 2880 
Q 2244 3097 1772 3097 
Q 1472 3097 1187 3025 
Q 903 2953 641 2809 
L 641 3341 
Q 956 3463 1253 3523 
Q 1550 3584 1831 3584 
Q 2591 3584 2966 3190 
Q 3341 2797 3341 1997 
z
" transform="scale(0.015625)"/>
       <path id="DejaVuSans-6c" d="M 603 4863 
L 1178 4863 
L 1178 0 
L 603 0 
L 603 4863 
z
" transform="scale(0.015625)"/>
       <path id="DejaVuSans-69" d="M 603 3500 
L 1178 3500 
L 1178 0 
L 603 0 
L 603 3500 
z
M 603 4863 
L 1178 4863 
L 1178 4134 
L 603 4134 
L 603 4863 
z
" transform="scale(0.015625)"/>
       <path id="DejaVuSans-64" d="M 2906 2969 
L 2906 4863 
L 3481 4863 
L 3481 0 
L 2906 0 
L 2906 525 
Q 2725 213 2448 61 
Q 2172 -91 1784 -91 
Q 1150 -91 751 415 
Q 353 922 353 1747 
Q 353 2572 751 3078 
Q 1150 3584 1784 3584 
Q 2172 3584 2448 3432 
Q 2725 3281 2906 2969 
z
M 947 1747 
Q 947 1113 1208 752 
Q 1469 391 1925 391 
Q 2381 391 2643 752 
Q 2906 1113 2906 1747 
Q 2906 2381 2643 2742 
Q 2381 3103 1925 3103 
Q 1469 3103 1208 2742 
Q 947 2381 947 1747 
z
" transform="scale(0.015625)"/>
       <path id="DejaVuSans-74" d="M 1172 4494 
L 1172 3500 
L 2356 3500 
L 2356 3053 
L 1172 3053 
L 1172 1153 
Q 1172 725 1289 603 
Q 1406 481 1766 481 
L 2356 481 
L 2356 0 
L 1766 0 
Q 1100 0 847 248 
Q 594 497 594 1153 
L 594 3053 
L 172 3053 
L 172 3500 
L 594 3500 
L 594 4494 
L 1172 4494 
z
" transform="scale(0.015625)"/>
       <path id="DejaVuSans-6e" d="M 3513 2113 
L 3513 0 
L 2938 0 
L 2938 2094 
Q 2938 2591 2744 2837 
Q 2550 3084 2163 3084 
Q 1697 3084 1428 2787 
Q 1159 2491 1159 1978 
L 1159 0 
L 581 0 
L 581 3500 
L 1159 3500 
L 1159 2956 
Q 1366 3272 1645 3428 
Q 1925 3584 2291 3584 
Q 2894 3584 3203 3211 
Q 3513 2838 3513 2113 
z
" transform="scale(0.015625)"/>
       <path id="DejaVuSans-20" transform="scale(0.015625)"/>
       <path id="DejaVuSans-4c" d="M 628 4666 
L 1259 4666 
L 1259 531 
L 3531 531 
L 3531 0 
L 628 0 
L 628 4666 
z
" transform="scale(0.015625)"/>
       <path id="DejaVuSans-73" d="M 2834 3397 
L 2834 2853 
Q 2591 2978 2328 3040 
Q 2066 3103 1784 3103 
Q 1356 3103 1142 2972 
Q 928 2841 928 2578 
Q 928 2378 1081 2264 
Q 1234 2150 1697 2047 
L 1894 2003 
Q 2506 1872 2764 1633 
Q 3022 1394 3022 966 
Q 3022 478 2636 193 
Q 2250 -91 1575 -91 
Q 1294 -91 989 -36 
Q 684 19 347 128 
L 347 722 
Q 666 556 975 473 
Q 1284 391 1588 391 
Q 1994 391 2212 530 
Q 2431 669 2431 922 
Q 2431 1156 2273 1281 
Q 2116 1406 1581 1522 
L 1381 1569 
Q 847 1681 609 1914 
Q 372 2147 372 2553 
Q 372 3047 722 3315 
Q 1072 3584 1716 3584 
Q 2034 3584 2315 3537 
Q 2597 3491 2834 3397 
z
" transform="scale(0.015625)"/>
       <path id="DejaVuSans-28" d="M 1984 4856 
Q 1566 4138 1362 3434 
Q 1159 2731 1159 2009 
Q 1159 1288 1364 580 
Q 1569 -128 1984 -844 
L 1484 -844 
Q 1016 -109 783 600 
Q 550 1309 550 2009 
Q 550 2706 781 3412 
Q 1013 4119 1484 4856 
L 1984 4856 
z
" transform="scale(0.015625)"/>
       <path id="DejaVuSans-4d" d="M 628 4666 
L 1569 4666 
L 2759 1491 
L 3956 4666 
L 4897 4666 
L 4897 0 
L 4281 0 
L 4281 4097 
L 3078 897 
L 2444 897 
L 1241 4097 
L 1241 0 
L 628 0 
L 628 4666 
z
" transform="scale(0.015625)"/>
       <path id="DejaVuSans-53" d="M 3425 4513 
L 3425 3897 
Q 3066 4069 2747 4153 
Q 2428 4238 2131 4238 
Q 1616 4238 1336 4038 
Q 1056 3838 1056 3469 
Q 1056 3159 1242 3001 
Q 1428 2844 1947 2747 
L 2328 2669 
Q 3034 2534 3370 2195 
Q 3706 1856 3706 1288 
Q 3706 609 3251 259 
Q 2797 -91 1919 -91 
Q 1588 -91 1214 -16 
Q 841 59 441 206 
L 441 856 
Q 825 641 1194 531 
Q 1563 422 1919 422 
Q 2459 422 2753 634 
Q 3047 847 3047 1241 
Q 3047 1584 2836 1778 
Q 2625 1972 2144 2069 
L 1759 2144 
Q 1053 2284 737 2584 
Q 422 2884 422 3419 
Q 422 4038 858 4394 
Q 1294 4750 2059 4750 
Q 2388 4750 2728 4690 
Q 3069 4631 3425 4513 
z
" transform="scale(0.015625)"/>
       <path id="DejaVuSans-29" d="M 513 4856 
L 1013 4856 
Q 1481 4119 1714 3412 
Q 1947 2706 1947 2009 
Q 1947 1309 1714 600 
Q 1481 -109 1013 -844 
L 513 -844 
Q 928 -128 1133 580 
Q 1338 1288 1338 2009 
Q 1338 2731 1133 3434 
Q 928 4138 513 4856 
z
" transform="scale(0.015625)"/>
      </defs>
      <use xlink:href="#DejaVuSans-56"/>
      <use xlink:href="#DejaVuSans-61" transform="translate(60.658203 0)"/>
      <use xlink:href="#DejaVuSans-6c" transform="translate(121.9375 0)"/>
      <use xlink:href="#DejaVuSans-69" transform="translate(149.720703 0)"/>
      <use xlink:href="#DejaVuSans-64" transform="translate(177.503906 0)"/>
      <use xlink:href="#DejaVuSans-61" transform="translate(240.980469 0)"/>
      <use xlink:href="#DejaVuSans-74" transform="translate(302.259766 0)"/>
      <use xlink:href="#DejaVuSans-69" transform="translate(341.46875 0)"/>
      <use xlink:href="#DejaVuSans-6f" transform="translate(369.251953 0)"/>
      <use xlink:href="#DejaVuSans-6e" transform="translate(430.433594 0)"/>
      <use xlink:href="#DejaVuSans-20" transform="translate(493.8125 0)"/>
      <use xlink:href="#DejaVuSans-4c" transform="translate(525.599609 0)"/>
      <use xlink:href="#DejaVuSans-6f" transform="translate(579.5625 0)"/>
      <use xlink:href="#DejaVuSans-73" transform="translate(640.744141 0)"/>
      <use xlink:href="#DejaVuSans-73" transform="translate(692.84375 0)"/>
      <use xlink:href="#DejaVuSans-20" transform="translate(744.943359 0)"/>
      <use xlink:href="#DejaVuSans-28" transform="translate(776.730469 0)"/>
      <use xlink:href="#DejaVuSans-4d" transform="translate(815.744141 0)"/>
      <use xlink:href="#DejaVuSans-53" transform="translate(902.023438 0)"/>
      <use xlink:href="#DejaVuSans-45" transform="translate(965.5 0)"/>
      <use xlink:href="#DejaVuSans-29" transform="translate(1028.683594 0)"/>
     </g>
    </g>
   </g>
   <g id="line2d_16">
    <path d="M 61.689545 130.644262 
L 63.410103 131.579387 
L 65.13066 132.637978 
L 66.851217 133.725647 
L 68.571775 134.846837 
L 70.292332 135.982676 
L 72.012889 137.08945 
L 73.733447 138.143564 
L 75.454004 139.169282 
L 77.174561 140.19486 
L 78.895119 141.230687 
L 80.615676 142.27675 
L 82.336233 143.334008 
L 84.056791 144.390392 
L 85.777348 145.457519 
L 87.497905 146.528721 
L 89.218463 147.614946 
L 90.93902 148.717744 
L 92.659577 149.836875 
L 94.380135 150.972044 
L 96.100692 152.12292 
L 97.821249 153.292054 
L 99.541807 154.476231 
L 101.262364 155.674282 
L 102.982921 156.886601 
L 104.703479 158.113696 
L 106.424036 159.355073 
L 108.144593 160.600384 
L 109.865151 161.85445 
L 111.585708 163.117906 
L 113.306265 164.39783 
L 115.026823 165.694053 
L 116.74738 167.00632 
L 118.467937 168.334363 
L 120.188495 169.677811 
L 121.909052 171.036167 
L 123.629609 172.408884 
L 125.350167 173.795502 
L 127.070724 175.195557 
L 128.791281 176.608435 
L 130.511839 178.036229 
L 132.232396 179.479282 
L 133.952953 180.933537 
L 135.673511 182.400996 
L 137.394068 183.878754 
L 139.114625 185.364911 
L 140.835183 186.85828 
L 142.55574 188.35779 
L 144.276297 189.86549 
L 145.996855 191.376758 
L 147.717412 192.890183 
L 149.437969 194.405071 
L 151.158527 195.924752 
L 152.879084 197.442041 
L 154.599641 198.955268 
L 156.320199 200.463572 
L 158.040756 201.969873 
L 159.761313 203.467042 
L 161.481871 204.953016 
L 163.202428 206.425822 
L 164.922985 207.883436 
L 166.643543 209.323824 
L 168.3641 210.744906 
L 170.084657 212.14464 
L 171.805215 213.520899 
L 173.525772 214.871563 
L 175.246329 216.194512 
L 176.966887 217.487539 
L 178.687444 218.748722 
L 180.408001 219.977027 
L 182.128559 221.169856 
L 183.849116 222.327489 
L 185.569673 223.445054 
L 187.290231 224.52616 
L 189.010788 225.564023 
L 190.731345 226.556757 
L 192.451903 227.5028 
L 194.17246 228.400738 
L 195.893017 229.249637 
L 197.613575 230.048434 
L 199.334132 230.796187 
L 201.054689 231.492205 
L 202.775247 232.136043 
L 204.495804 232.727515 
L 206.216361 233.266692 
L 207.936919 233.755271 
L 209.657476 234.19359 
L 211.378033 234.581196 
L 213.098591 234.919307 
L 214.819148 235.209569 
L 216.539705 235.45357 
L 218.260263 235.653364 
L 219.98082 235.811251 
L 221.701377 235.92984 
L 223.421935 236.011869 
L 225.142492 236.06028 
L 226.863049 236.078182 
L 228.583607 236.068802 
L 230.304164 236.035533 
L 232.024721 235.981712 
L 233.745279 235.910363 
L 235.465836 235.824781 
L 237.186393 235.728166 
L 238.906951 235.623635 
L 240.627508 235.514093 
L 242.348065 235.402219 
L 244.068623 235.290454 
L 245.78918 235.180952 
L 247.509737 235.075589 
L 249.230295 234.97595 
L 250.950852 234.883316 
L 252.671409 234.798514 
" clip-path="url(#p3b4be2c262)" style="fill: none; stroke: #1f77b4; stroke-opacity: 0.5; stroke-width: 1.5; stroke-linecap: square"/>
   </g>
   <g id="line2d_17">
    <path d="M 61.689545 51.666242 
L 75.454004 62.929899 
L 82.336233 68.785085 
L 87.497905 73.436495 
L 94.380135 80.158602 
L 99.541807 85.716834 
L 106.424036 93.512835 
L 111.585708 99.699658 
L 118.467937 108.393232 
L 125.350167 117.462531 
L 133.952953 129.189341 
L 154.599641 157.707749 
L 161.481871 166.80667 
L 166.643543 173.319879 
L 171.805215 179.448804 
L 176.966887 185.132542 
L 182.128559 190.349989 
L 185.569673 193.533289 
L 189.010788 196.471449 
L 192.451903 199.167409 
L 195.893017 201.630034 
L 199.334132 203.869396 
L 202.775247 205.899304 
L 206.216361 207.738792 
L 211.378033 210.173497 
L 216.539705 212.278801 
L 221.701377 214.127402 
L 228.583607 216.282876 
L 235.465836 218.190315 
L 245.78918 220.795368 
L 257.833081 223.577436 
L 268.156425 225.751395 
L 278.479769 227.682801 
L 287.082556 229.070951 
L 295.685343 230.24855 
L 304.288129 231.222744 
L 314.611473 232.151604 
L 324.934817 232.862039 
L 336.978719 233.478755 
L 352.463735 234.035942 
L 371.389865 234.490243 
L 395.477668 234.844754 
L 404.080455 234.927717 
L 404.080455 234.927717 
" clip-path="url(#p3b4be2c262)" style="fill: none; stroke: #ff7f0e; stroke-opacity: 0.5; stroke-width: 1.5; stroke-linecap: square"/>
   </g>
   <g id="line2d_18">
    <path d="M 61.689545 125.027054 
L 97.821249 130.519014 
L 145.996855 137.577178 
L 292.244228 158.750154 
L 340.419833 165.363881 
L 404.080455 173.892285 
L 404.080455 173.892285 
" clip-path="url(#p3b4be2c262)" style="fill: none; stroke: #2ca02c; stroke-opacity: 0.5; stroke-width: 1.5; stroke-linecap: square"/>
   </g>
   <g id="line2d_19">
    <path d="M 61.689545 126.842495 
L 63.410103 128.00338 
L 65.13066 129.106418 
L 66.851217 130.205959 
L 68.571775 131.303914 
L 70.292332 132.371739 
L 72.012889 133.387292 
L 73.733447 134.379997 
L 75.454004 135.318873 
L 77.174561 136.233625 
L 78.895119 137.183208 
L 80.615676 138.191204 
L 82.336233 139.191023 
L 84.056791 140.201035 
L 85.777348 141.222284 
L 87.497905 142.254982 
L 89.218463 143.304182 
L 90.93902 144.375631 
L 92.659577 145.468348 
L 94.380135 146.586598 
L 96.100692 147.755837 
L 97.821249 148.973845 
L 99.541807 150.214066 
L 101.262364 151.475309 
L 102.982921 152.757496 
L 104.703479 154.07885 
L 106.424036 155.459131 
L 108.144593 156.859813 
L 109.865151 158.280656 
L 111.585708 159.721789 
L 113.306265 161.183703 
L 115.026823 162.665708 
L 116.74738 164.16693 
L 118.467937 165.686524 
L 120.188495 167.223698 
L 121.909052 168.777595 
L 123.629609 170.347366 
L 125.350167 171.932196 
L 127.070724 173.53116 
L 128.791281 175.193231 
L 130.511839 176.880659 
L 132.232396 178.579916 
L 133.952953 180.312701 
L 135.673511 182.096764 
L 137.394068 183.889117 
L 139.114625 185.69062 
L 140.835183 187.501052 
L 142.55574 189.315015 
L 144.276297 191.131714 
L 145.996855 192.9477 
L 147.717412 194.758016 
L 149.437969 196.562691 
L 151.158527 198.35821 
L 152.879084 200.141028 
L 154.599641 201.907925 
L 156.320199 203.655729 
L 158.040756 205.381242 
L 159.761313 207.081243 
L 161.481871 208.754294 
L 163.202428 210.396706 
L 164.922985 212.004843 
L 166.643543 213.575344 
L 168.3641 215.104806 
L 170.084657 216.590157 
L 171.805215 218.032255 
L 173.525772 219.425233 
L 175.246329 220.764902 
L 176.966887 222.0488 
L 178.687444 223.274688 
L 180.408001 224.440936 
L 182.128559 225.545878 
L 183.849116 226.588033 
L 185.569673 227.566236 
L 187.290231 228.479694 
L 189.010788 229.32795 
L 190.731345 230.110941 
L 192.451903 230.829113 
L 194.17246 231.484775 
L 195.893017 232.081802 
L 197.613575 232.616649 
L 199.334132 233.091171 
L 201.054689 233.50836 
L 202.775247 233.87248 
L 204.495804 234.182969 
L 206.216361 234.44268 
L 207.936919 234.654709 
L 209.657476 234.822363 
L 211.378033 234.949149 
L 213.098591 235.038583 
L 214.819148 235.094187 
L 216.539705 235.119519 
L 218.260263 235.1181 
L 219.98082 235.093383 
L 221.701377 235.048703 
L 223.421935 234.987248 
L 225.142492 234.912036 
L 226.863049 234.825882 
L 228.583607 234.731369 
L 230.304164 234.63086 
L 232.024721 234.526514 
L 233.745279 234.420846 
L 235.465836 234.314568 
L 237.186393 234.209112 
L 238.906951 234.105687 
L 240.627508 234.005282 
L 242.348065 233.908702 
" clip-path="url(#p3b4be2c262)" style="fill: none; stroke: #d62728; stroke-opacity: 0.5; stroke-width: 1.5; stroke-linecap: square"/>
   </g>
   <g id="line2d_20">
    <path d="M 61.689545 118.730922 
L 80.615676 121.672811 
L 99.541807 124.415072 
L 118.467937 126.94412 
L 140.835183 129.69121 
L 173.525772 133.440283 
L 214.819148 138.214059 
L 238.906951 141.231857 
L 261.274196 144.264516 
L 283.641441 147.53886 
L 306.008687 151.044682 
L 330.096489 155.047404 
L 357.625407 159.850287 
L 400.63934 167.61551 
L 404.080455 168.240365 
L 404.080455 168.240365 
" clip-path="url(#p3b4be2c262)" style="fill: none; stroke: #9467bd; stroke-opacity: 0.5; stroke-width: 1.5; stroke-linecap: square"/>
   </g>
   <g id="line2d_21">
    <path d="M 61.689545 130.151459 
L 63.410103 130.927357 
L 65.13066 131.705003 
L 66.851217 132.496713 
L 68.571775 133.309923 
L 70.292332 134.129232 
L 72.012889 134.99026 
L 73.733447 135.866465 
L 75.454004 136.747633 
L 77.174561 137.6305 
L 78.895119 138.549433 
L 80.615676 139.537239 
L 82.336233 140.587912 
L 84.056791 141.707248 
L 85.777348 142.908232 
L 87.497905 144.188536 
L 89.218463 145.53247 
L 90.93902 146.917516 
L 92.659577 148.328194 
L 94.380135 149.767254 
L 96.100692 151.236866 
L 97.821249 152.749664 
L 99.541807 154.314994 
L 101.262364 155.922058 
L 102.982921 157.560189 
L 104.703479 159.223642 
L 106.424036 160.914975 
L 108.144593 162.634606 
L 109.865151 164.407269 
L 111.585708 166.201773 
L 113.306265 168.054131 
L 115.026823 169.94632 
L 116.74738 171.862702 
L 118.467937 173.800804 
L 120.188495 175.758404 
L 121.909052 177.733685 
L 123.629609 179.724637 
L 125.350167 181.731211 
L 127.070724 183.74929 
L 128.791281 185.77857 
L 130.511839 187.813863 
L 132.232396 189.851941 
L 133.952953 191.889219 
L 135.673511 193.922387 
L 137.394068 195.948009 
L 139.114625 197.964216 
L 140.835183 199.966503 
L 142.55574 201.950346 
L 144.276297 203.911683 
L 145.996855 205.846369 
L 147.717412 207.750179 
L 149.437969 209.619816 
L 151.158527 211.456172 
L 152.879084 213.249071 
L 154.599641 214.993466 
L 156.320199 216.685056 
L 158.040756 218.319671 
L 159.761313 219.893291 
L 161.481871 221.402108 
L 163.202428 222.842555 
L 164.922985 224.211447 
L 166.643543 225.505919 
L 168.3641 226.723482 
L 170.084657 227.86424 
L 171.805215 228.926014 
L 173.525772 229.906237 
L 175.246329 230.80555 
L 176.966887 231.622819 
L 178.687444 232.358965 
L 180.408001 233.016905 
L 182.128559 233.597792 
L 183.849116 234.104369 
L 185.569673 234.541374 
L 187.290231 234.911254 
L 189.010788 235.218723 
L 190.731345 235.46696 
L 192.451903 235.661164 
L 194.17246 235.806749 
L 195.893017 235.909253 
L 197.613575 235.974237 
L 199.334132 236.007163 
L 201.054689 236.013316 
L 202.775247 235.997709 
L 204.495804 235.965015 
L 206.216361 235.91951 
L 207.936919 235.86502 
L 209.657476 235.804908 
L 211.378033 235.742058 
L 213.098591 235.67888 
L 214.819148 235.617334 
L 216.539705 235.558943 
L 218.260263 235.504844 
L 219.98082 235.455819 
L 221.701377 235.412344 
L 223.421935 235.374631 
L 225.142492 235.342678 
L 226.863049 235.316306 
" clip-path="url(#p3b4be2c262)" style="fill: none; stroke: #8c564b; stroke-opacity: 0.5; stroke-width: 1.5; stroke-linecap: square"/>
   </g>
   <g id="line2d_22">
    <path d="M 61.689545 36.841818 
L 106.424036 41.656383 
L 151.158527 46.71658 
L 194.17246 51.781868 
L 223.421935 55.441384 
L 247.509737 58.667453 
L 269.876983 61.875461 
L 290.523671 65.045162 
L 311.170359 68.440885 
L 330.096489 71.773458 
L 349.02262 75.330305 
L 367.948751 79.114259 
L 386.874881 83.11655 
L 404.080455 86.929773 
L 404.080455 86.929773 
" clip-path="url(#p3b4be2c262)" style="fill: none; stroke: #e377c2; stroke-opacity: 0.5; stroke-width: 1.5; stroke-linecap: square"/>
   </g>
   <g id="line2d_23">
    <path d="M 61.689545 145.330396 
L 94.380135 149.101893 
L 116.74738 151.408529 
L 180.408001 157.889458 
L 218.260263 161.99114 
L 254.391967 166.127175 
L 288.803113 170.282779 
L 324.934817 174.869686 
L 367.948751 180.569254 
L 404.080455 185.471641 
L 404.080455 185.471641 
" clip-path="url(#p3b4be2c262)" style="fill: none; stroke: #7f7f7f; stroke-opacity: 0.5; stroke-width: 1.5; stroke-linecap: square"/>
   </g>
   <g id="line2d_24">
    <path d="M 61.689545 129.251708 
L 63.410103 130.270363 
L 65.13066 131.288842 
L 66.851217 132.303225 
L 68.571775 133.309077 
L 70.292332 134.350784 
L 72.012889 135.426653 
L 73.733447 136.503466 
L 75.454004 137.586257 
L 77.174561 138.668309 
L 78.895119 139.741054 
L 80.615676 140.876682 
L 82.336233 142.051589 
L 84.056791 143.240151 
L 85.777348 144.443123 
L 87.497905 145.661434 
L 89.218463 146.884574 
L 90.93902 148.092395 
L 92.659577 149.299773 
L 94.380135 150.5271 
L 96.100692 151.79351 
L 97.821249 153.109323 
L 99.541807 154.455491 
L 101.262364 155.86569 
L 102.982921 157.387835 
L 104.703479 158.942578 
L 106.424036 160.527238 
L 108.144593 162.144439 
L 109.865151 163.820207 
L 111.585708 165.537032 
L 113.306265 167.282097 
L 115.026823 169.069571 
L 116.74738 170.916361 
L 118.467937 172.789276 
L 120.188495 174.686145 
L 121.909052 176.608096 
L 123.629609 178.549779 
L 125.350167 180.510524 
L 127.070724 182.487553 
L 128.791281 184.480011 
L 130.511839 186.484536 
L 132.232396 188.49762 
L 133.952953 190.523619 
L 135.673511 192.557295 
L 137.394068 194.58992 
L 139.114625 196.617896 
L 140.835183 198.642883 
L 142.55574 200.656464 
L 144.276297 202.653792 
L 145.996855 204.630814 
L 147.717412 206.583082 
L 149.437969 208.506267 
L 151.158527 210.395689 
L 152.879084 212.246632 
L 154.599641 214.054355 
L 156.320199 215.814139 
L 158.040756 217.521294 
L 159.761313 219.173102 
L 161.481871 220.767815 
L 163.202428 222.299566 
L 164.922985 223.765114 
L 166.643543 225.156875 
L 168.3641 226.473588 
L 170.084657 227.708882 
L 171.805215 228.85935 
L 173.525772 229.922395 
L 175.246329 230.895935 
L 176.966887 231.778463 
L 178.687444 232.570017 
L 180.408001 233.269411 
L 182.128559 233.877267 
L 183.849116 234.395787 
L 185.569673 234.825122 
L 187.290231 235.168029 
L 189.010788 235.428077 
L 190.731345 235.609137 
L 192.451903 235.716426 
L 194.17246 235.755782 
L 195.893017 235.733678 
L 197.613575 235.657116 
L 199.334132 235.5335 
L 201.054689 235.370499 
L 202.775247 235.175891 
L 204.495804 234.957402 
L 206.216361 234.722551 
L 207.936919 234.478491 
L 209.657476 234.231886 
L 211.378033 233.988564 
L 213.098591 233.753816 
L 214.819148 233.532477 
L 216.539705 233.328323 
L 218.260263 233.144284 
L 219.98082 232.982465 
" clip-path="url(#p3b4be2c262)" style="fill: none; stroke: #bcbd22; stroke-opacity: 0.5; stroke-width: 1.5; stroke-linecap: square"/>
   </g>
   <g id="line2d_25">
    <path d="M 61.689545 137.794373 
L 125.350167 142.860915 
L 149.437969 145.011617 
L 171.805215 147.224459 
L 195.893017 149.838341 
L 223.421935 153.057495 
L 254.391967 156.906791 
L 285.361999 160.975982 
L 316.332031 165.263228 
L 352.463735 170.499001 
L 404.080455 178.219432 
L 404.080455 178.219432 
" clip-path="url(#p3b4be2c262)" style="fill: none; stroke: #17becf; stroke-opacity: 0.5; stroke-width: 1.5; stroke-linecap: square"/>
   </g>
   <g id="patch_3">
    <path d="M 44.57 246.04 
L 44.57 26.88 
" style="fill: none; stroke: #000000; stroke-width: 0.8; stroke-linejoin: miter; stroke-linecap: square"/>
   </g>
   <g id="patch_4">
    <path d="M 421.2 246.04 
L 421.2 26.88 
" style="fill: none; stroke: #000000; stroke-width: 0.8; stroke-linejoin: miter; stroke-linecap: square"/>
   </g>
   <g id="patch_5">
    <path d="M 44.57 246.04 
L 421.2 246.04 
" style="fill: none; stroke: #000000; stroke-width: 0.8; stroke-linejoin: miter; stroke-linecap: square"/>
   </g>
   <g id="patch_6">
    <path d="M 44.57 26.88 
L 421.2 26.88 
" style="fill: none; stroke: #000000; stroke-width: 0.8; stroke-linejoin: miter; stroke-linecap: square"/>
   </g>
   <g id="text_18">
    <!-- Figure 3C — Training Convergence -->
    <g transform="translate(129.699063 20.88) scale(0.12 -0.12)">
     <defs>
      <path id="DejaVuSans-46" d="M 628 4666 
L 3309 4666 
L 3309 4134 
L 1259 4134 
L 1259 2759 
L 3109 2759 
L 3109 2228 
L 1259 2228 
L 1259 0 
L 628 0 
L 628 4666 
z
" transform="scale(0.015625)"/>
      <path id="DejaVuSans-67" d="M 2906 1791 
Q 2906 2416 2648 2759 
Q 2391 3103 1925 3103 
Q 1463 3103 1205 2759 
Q 947 2416 947 1791 
Q 947 1169 1205 825 
Q 1463 481 1925 481 
Q 2391 481 2648 825 
Q 2906 1169 2906 1791 
z
M 3481 434 
Q 3481 -459 3084 -895 
Q 2688 -1331 1869 -1331 
Q 1566 -1331 1297 -1286 
Q 1028 -1241 775 -1147 
L 775 -588 
Q 1028 -725 1275 -790 
Q 1522 -856 1778 -856 
Q 2344 -856 2625 -561 
Q 2906 -266 2906 331 
L 2906 616 
Q 2728 306 2450 153 
Q 2172 0 1784 0 
Q 1141 0 747 490 
Q 353 981 353 1791 
Q 353 2603 747 3093 
Q 1141 3584 1784 3584 
Q 2172 3584 2450 3431 
Q 2728 3278 2906 2969 
L 2906 3500 
L 3481 3500 
L 3481 434 
z
" transform="scale(0.015625)"/>
      <path id="DejaVuSans-75" d="M 544 1381 
L 544 3500 
L 1119 3500 
L 1119 1403 
Q 1119 906 1312 657 
Q 1506 409 1894 409 
Q 2359 409 2629 706 
Q 2900 1003 2900 1516 
L 2900 3500 
L 3475 3500 
L 3475 0 
L 2900 0 
L 2900 538 
Q 2691 219 2414 64 
Q 2138 -91 1772 -91 
Q 1169 -91 856 284 
Q 544 659 544 1381 
z
M 1991 3584 
L 1991 3584 
z
" transform="scale(0.015625)"/>
      <path id="DejaVuSans-72" d="M 2631 2963 
Q 2534 3019 2420 3045 
Q 2306 3072 2169 3072 
Q 1681 3072 1420 2755 
Q 1159 2438 1159 1844 
L 1159 0 
L 581 0 
L 581 3500 
L 1159 3500 
L 1159 2956 
Q 1341 3275 1631 3429 
Q 1922 3584 2338 3584 
Q 2397 3584 2469 3576 
Q 2541 3569 2628 3553 
L 2631 2963 
z
" transform="scale(0.015625)"/>
      <path id="DejaVuSans-65" d="M 3597 1894 
L 3597 1613 
L 953 1613 
Q 991 1019 1311 708 
Q 1631 397 2203 397 
Q 2534 397 2845 478 
Q 3156 559 3463 722 
L 3463 178 
Q 3153 47 2828 -22 
Q 2503 -91 2169 -91 
Q 1331 -91 842 396 
Q 353 884 353 1716 
Q 353 2575 817 3079 
Q 1281 3584 2069 3584 
Q 2775 3584 3186 3129 
Q 3597 2675 3597 1894 
z
M 3022 2063 
Q 3016 2534 2758 2815 
Q 2500 3097 2075 3097 
Q 1594 3097 1305 2825 
Q 1016 2553 972 2059 
L 3022 2063 
z
" transform="scale(0.015625)"/>
      <path id="DejaVuSans-43" d="M 4122 4306 
L 4122 3641 
Q 3803 3938 3442 4084 
Q 3081 4231 2675 4231 
Q 1875 4231 1450 3742 
Q 1025 3253 1025 2328 
Q 1025 1406 1450 917 
Q 1875 428 2675 428 
Q 3081 428 3442 575 
Q 3803 722 4122 1019 
L 4122 359 
Q 3791 134 3420 21 
Q 3050 -91 2638 -91 
Q 1578 -91 968 557 
Q 359 1206 359 2328 
Q 359 3453 968 4101 
Q 1578 4750 2638 4750 
Q 3056 4750 3426 4639 
Q 3797 4528 4122 4306 
z
" transform="scale(0.015625)"/>
      <path id="DejaVuSans-2014" d="M 313 1978 
L 6088 1978 
L 6088 1528 
L 313 1528 
L 313 1978 
z
" transform="scale(0.015625)"/>
      <path id="DejaVuSans-54" d="M -19 4666 
L 3928 4666 
L 3928 4134 
L 2272 4134 
L 2272 0 
L 1638 0 
L 1638 4134 
L -19 4134 
L -19 4666 
z
" transform="scale(0.015625)"/>
      <path id="DejaVuSans-76" d="M 191 3500 
L 800 3500 
L 1894 563 
L 2988 3500 
L 3597 3500 
L 2284 0 
L 1503 0 
L 191 3500 
z
" transform="scale(0.015625)"/>
     </defs>
     <use xlink:href="#DejaVuSans-46"/>
     <use xlink:href="#DejaVuSans-69" transform="translate(50.269531 0)"/>
     <use xlink:href="#DejaVuSans-67" transform="translate(78.052734 0)"/>
     <use xlink:href="#DejaVuSans-75" transform="translate(141.529297 0)"/>
     <use xlink:href="#DejaVuSans-72" transform="translate(204.908203 0)"/>
     <use xlink:href="#DejaVuSans-65" transform="translate(243.771484 0)"/>
     <use xlink:href="#DejaVuSans-20" transform="translate(305.294922 0)"/>
     <use xlink:href="#DejaVuSans-33" transform="translate(337.082031 0)"/>
     <use xlink:href="#DejaVuSans-43" transform="translate(400.705078 0)"/>
     <use xlink:href="#DejaVuSans-20" transform="translate(470.529297 0)"/>
     <use xlink:href="#DejaVuSans-2014" transform="translate(502.316406 0)"/>
     <use xlink:href="#DejaVuSans-20" transform="translate(602.316406 0)"/>
     <use xlink:href="#DejaVuSans-54" transform="translate(634.103516 0)"/>
     <use xlink:href="#DejaVuSans-72" transform="translate(680.4375 0)"/>
     <use xlink:href="#DejaVuSans-61" transform="translate(721.550781 0)"/>
     <use xlink:href="#DejaVuSans-69" transform="translate(782.830078 0)"/>
     <use xlink:href="#DejaVuSans-6e" transform="translate(810.613281 0)"/>
     <use xlink:href="#DejaVuSans-69" transform="translate(873.992188 0)"/>
     <use xlink:href="#DejaVuSans-6e" transform="translate(901.775391 0)"/>
     <use xlink:href="#DejaVuSans-67" transform="translate(965.154297 0)"/>
     <use xlink:href="#DejaVuSans-20" transform="translate(1028.630859 0)"/>
     <use xlink:href="#DejaVuSans-43" transform="translate(1060.417969 0)"/>
     <use xlink:href="#DejaVuSans-6f" transform="translate(1130.242188 0)"/>
     <use xlink:href="#DejaVuSans-6e" transform="translate(1191.423828 0)"/>
     <use xlink:href="#DejaVuSans-76" transform="translate(1254.802734 0)"/>
     <use xlink:href="#DejaVuSans-65" transform="translate(1313.982422 0)"/>
     <use xlink:href="#DejaVuSans-72" transform="translate(1375.505859 0)"/>
     <use xlink:href="#DejaVuSans-67" transform="translate(1414.869141 0)"/>
     <use xlink:href="#DejaVuSans-65" transform="translate(1478.345703 0)"/>
     <use xlink:href="#DejaVuSans-6e" transform="translate(1539.869141 0)"/>
     <use xlink:href="#DejaVuSans-63" transform="translate(1603.248047 0)"/>
     <use xlink:href="#DejaVuSans-65" transform="translate(1658.228516 0)"/>
    </g>
   </g>
   <g id="legend_1">
    <g id="patch_7">
     <path d="M 359.365625 181.66125 
L 414.2 181.66125 
Q 416.2 181.66125 416.2 179.66125 
L 416.2 33.88 
Q 416.2 31.88 414.2 31.88 
L 359.365625 31.88 
Q 357.365625 31.88 357.365625 33.88 
L 357.365625 179.66125 
Q 357.365625 181.66125 359.365625 181.66125 
z
" style="fill: #ffffff; opacity: 0.8; stroke: #cccccc; stroke-linejoin: miter"/>
    </g>
    <g id="line2d_26">
     <path d="M 361.365625 39.978437 
L 371.365625 39.978437 
L 381.365625 39.978437 
" style="fill: none; stroke: #1f77b4; stroke-opacity: 0.5; stroke-width: 1.5; stroke-linecap: square"/>
    </g>
    <g id="text_19">
     <!-- MLP -->
     <g transform="translate(389.365625 43.478437) scale(0.1 -0.1)">
      <defs>
       <path id="DejaVuSans-50" d="M 1259 4147 
L 1259 2394 
L 2053 2394 
Q 2494 2394 2734 2622 
Q 2975 2850 2975 3272 
Q 2975 3691 2734 3919 
Q 2494 4147 2053 4147 
L 1259 4147 
z
M 628 4666 
L 2053 4666 
Q 2838 4666 3239 4311 
Q 3641 3956 3641 3272 
Q 3641 2581 3239 2228 
Q 2838 1875 2053 1875 
L 1259 1875 
L 1259 0 
L 628 0 
L 628 4666 
z
" transform="scale(0.015625)"/>
      </defs>
      <use xlink:href="#DejaVuSans-4d"/>
      <use xlink:href="#DejaVuSans-4c" transform="translate(86.279297 0)"/>
      <use xlink:href="#DejaVuSans-50" transform="translate(141.992188 0)"/>
     </g>
    </g>
    <g id="line2d_27">
     <path d="M 361.365625 54.656563 
L 371.365625 54.656563 
L 381.365625 54.656563 
" style="fill: none; stroke: #ff7f0e; stroke-opacity: 0.5; stroke-width: 1.5; stroke-linecap: square"/>
    </g>
    <g id="text_20">
     <!-- MLP -->
     <g transform="translate(389.365625 58.156563) scale(0.1 -0.1)">
      <use xlink:href="#DejaVuSans-4d"/>
      <use xlink:href="#DejaVuSans-4c" transform="translate(86.279297 0)"/>
      <use xlink:href="#DejaVuSans-50" transform="translate(141.992188 0)"/>
     </g>
    </g>
    <g id="line2d_28">
     <path d="M 361.365625 69.334688 
L 371.365625 69.334688 
L 381.365625 69.334688 
" style="fill: none; stroke: #2ca02c; stroke-opacity: 0.5; stroke-width: 1.5; stroke-linecap: square"/>
    </g>
    <g id="text_21">
     <!-- QNN -->
     <g transform="translate(389.365625 72.834688) scale(0.1 -0.1)">
      <defs>
       <path id="DejaVuSans-51" d="M 2522 4238 
Q 1834 4238 1429 3725 
Q 1025 3213 1025 2328 
Q 1025 1447 1429 934 
Q 1834 422 2522 422 
Q 3209 422 3611 934 
Q 4013 1447 4013 2328 
Q 4013 3213 3611 3725 
Q 3209 4238 2522 4238 
z
M 3406 84 
L 4238 -825 
L 3475 -825 
L 2784 -78 
Q 2681 -84 2626 -87 
Q 2572 -91 2522 -91 
Q 1538 -91 948 567 
Q 359 1225 359 2328 
Q 359 3434 948 4092 
Q 1538 4750 2522 4750 
Q 3503 4750 4090 4092 
Q 4678 3434 4678 2328 
Q 4678 1516 4351 937 
Q 4025 359 3406 84 
z
" transform="scale(0.015625)"/>
       <path id="DejaVuSans-4e" d="M 628 4666 
L 1478 4666 
L 3547 763 
L 3547 4666 
L 4159 4666 
L 4159 0 
L 3309 0 
L 1241 3903 
L 1241 0 
L 628 0 
L 628 4666 
z
" transform="scale(0.015625)"/>
      </defs>
      <use xlink:href="#DejaVuSans-51"/>
      <use xlink:href="#DejaVuSans-4e" transform="translate(78.710938 0)"/>
      <use xlink:href="#DejaVuSans-4e" transform="translate(153.515625 0)"/>
     </g>
    </g>
    <g id="line2d_29">
     <path d="M 361.365625 84.012812 
L 371.365625 84.012812 
L 381.365625 84.012812 
" style="fill: none; stroke: #d62728; stroke-opacity: 0.5; stroke-width: 1.5; stroke-linecap: square"/>
    </g>
    <g id="text_22">
     <!-- MLP -->
     <g transform="translate(389.365625 87.512812) scale(0.1 -0.1)">
      <use xlink:href="#DejaVuSans-4d"/>
      <use xlink:href="#DejaVuSans-4c" transform="translate(86.279297 0)"/>
      <use xlink:href="#DejaVuSans-50" transform="translate(141.992188 0)"/>
     </g>
    </g>
    <g id="line2d_30">
     <path d="M 361.365625 98.690938 
L 371.365625 98.690938 
L 381.365625 98.690938 
" style="fill: none; stroke: #9467bd; stroke-opacity: 0.5; stroke-width: 1.5; stroke-linecap: square"/>
    </g>
    <g id="text_23">
     <!-- QNN -->
     <g transform="translate(389.365625 102.190938) scale(0.1 -0.1)">
      <use xlink:href="#DejaVuSans-51"/>
      <use xlink:href="#DejaVuSans-4e" transform="translate(78.710938 0)"/>
      <use xlink:href="#DejaVuSans-4e" transform="translate(153.515625 0)"/>
     </g>
    </g>
    <g id="line2d_31">
     <path d="M 361.365625 113.369062 
L 371.365625 113.369062 
L 381.365625 113.369062 
" style="fill: none; stroke: #8c564b; stroke-opacity: 0.5; stroke-width: 1.5; stroke-linecap: square"/>
    </g>
    <g id="text_24">
     <!-- MLP -->
     <g transform="translate(389.365625 116.869062) scale(0.1 -0.1)">
      <use xlink:href="#DejaVuSans-4d"/>
      <use xlink:href="#DejaVuSans-4c" transform="translate(86.279297 0)"/>
      <use xlink:href="#DejaVuSans-50" transform="translate(141.992188 0)"/>
     </g>
    </g>
    <g id="line2d_32">
     <path d="M 361.365625 128.047188 
L 371.365625 128.047188 
L 381.365625 128.047188 
" style="fill: none; stroke: #e377c2; stroke-opacity: 0.5; stroke-width: 1.5; stroke-linecap: square"/>
    </g>
    <g id="text_25">
     <!-- QNN -->
     <g transform="translate(389.365625 131.547188) scale(0.1 -0.1)">
      <use xlink:href="#DejaVuSans-51"/>
      <use xlink:href="#DejaVuSans-4e" transform="translate(78.710938 0)"/>
      <use xlink:href="#DejaVuSans-4e" transform="translate(153.515625 0)"/>
     </g>
    </g>
    <g id="line2d_33">
     <path d="M 361.365625 142.725312 
L 371.365625 142.725312 
L 381.365625 142.725312 
" style="fill: none; stroke: #7f7f7f; stroke-opacity: 0.5; stroke-width: 1.5; stroke-linecap: square"/>
    </g>
    <g id="text_26">
     <!-- QNN -->
     <g transform="translate(389.365625 146.225312) scale(0.1 -0.1)">
      <use xlink:href="#DejaVuSans-51"/>
      <use xlink:href="#DejaVuSans-4e" transform="translate(78.710938 0)"/>
      <use xlink:href="#DejaVuSans-4e" transform="translate(153.515625 0)"/>
     </g>
    </g>
    <g id="line2d_34">
     <path d="M 361.365625 157.403437 
L 371.365625 157.403437 
L 381.365625 157.403437 
" style="fill: none; stroke: #bcbd22; stroke-opacity: 0.5; stroke-width: 1.5; stroke-linecap: square"/>
    </g>
    <g id="text_27">
     <!-- MLP -->
     <g transform="translate(389.365625 160.903437) scale(0.1 -0.1)">
      <use xlink:href="#DejaVuSans-4d"/>
      <use xlink:href="#DejaVuSans-4c" transform="translate(86.279297 0)"/>
      <use xlink:href="#DejaVuSans-50" transform="translate(141.992188 0)"/>
     </g>
    </g>
    <g id="line2d_35">
     <path d="M 361.365625 172.081562 
L 371.365625 172.081562 
L 381.365625 172.081562 
" style="fill: none; stroke: #17becf; stroke-opacity: 0.5; stroke-width: 1.5; stroke-linecap: square"/>
    </g>
    <g id="text_28">
     <!-- QNN -->
     <g transform="translate(389.365625 175.581562) scale(0.1 -0.1)">
      <use xlink:href="#DejaVuSans-51"/>
      <use xlink:href="#DejaVuSans-4e" transform="translate(78.710938 0)"/>
      <use xlink:href="#DejaVuSans-4e" transform="translate(153.515625 0)"/>
     </g>
    </g>
   </g>
  </g>
 </g>
 <defs>
  <clipPath id="p3b4be2c262">
   <rect x="44.57" y="26.88" width="376.63" height="219.16"/>
  </clipPath>
 </defs>
</svg>
