<?xml version="1.0" encoding="utf-8" standalone="no"?>
<!DOCTYPE svg PUBLIC "-//W3C//DTD SVG 1.1//EN"
  "http://www.w3.org/Graphics/SVG/1.1/DTD/svg11.dtd">
<svg xmlns:xlink="http://www.w3.org/1999/xlink" width="504pt" height="288pt" viewBox="0 0 504 288" xmlns="http://www.w3.org/2000/svg" version="1.1">
 <metadata>
  <rdf:RDF xmlns:dc="http://purl.org/dc/elements/1.1/" xmlns:cc="http://creativecommons.org/ns#" xmlns:rdf="http://www.w3.org/1999/02/22-rdf-syntax-ns#">
   <cc:Work>
    <dc:type rdf:resource="http://purl.org/dc/dcmitype/StillImage"/>
    <dc:date>2025-11-07T06:18:43.399733</dc:date>
    <dc:format>image/svg+xml</dc:format>
    <dc:creator>
     <cc:Agent>
      <dc:title>Matplotlib v3.10.7, https://matplotlib.org/</dc:title>
     </cc:Agent>
    </dc:creator>
   </cc:Work>
  </rdf:RDF>
 </metadata>
 <defs>
  <style type="text/css">*{stroke-linejoin: round; stroke-linecap: butt}</style>
 </defs>
 <g id="figure_1">
  <g id="patch_1">
   <path d="M 0 288 
L 504 288 
L 504 0 
L 0 0 
z
" style="fill: #ffffff"/>
  </g>
  <g id="axes_1">
   <g id="patch_2">
    <path d="M 54.34625 246.04 
L 493.2 246.04 
L 493.2 26.88 
L 54.34625 26.88 
z
" style="fill: #ffffff"/>
   </g>
   <g id="matplotlib.axis_1">
    <g id="xtick_1">
     <g id="line2d_1">
      <defs>
       <path id="mf44cfcfbd6" d="M 0 0 
L 0 3.5 
" style="stroke: #000000; stroke-width: 0.8"/>
      </defs>
      <g>
       <use xlink:href="#mf44cfcfbd6" x="74.294148" y="246.04" style="stroke: #000000; stroke-width: 0.8"/>
      </g>
     </g>
     <g id="text_1">
      <!-- 0 -->
      <g transform="translate(71.112898 260.638438) scale(0.1 -0.1)">
       <defs>
        <path id="DejaVuSans-30" d="M 2034 4250 
Q 1547 4250 1301 3770 
Q 1056 3291 1056 2328 
Q 1056 1369 1301 889 
Q 1547 409 2034 409 
Q 2525 409 2770 889 
Q 3016 1369 3016 2328 
Q 3016 3291 2770 3770 
Q 2525 4250 2034 4250 
z
M 2034 4750 
Q 2819 4750 3233 4129 
Q 3647 3509 3647 2328 
Q 3647 1150 3233 529 
Q 2819 -91 2034 -91 
Q 1250 -91 836 529 
Q 422 1150 422 2328 
Q 422 3509 836 4129 
Q 1250 4750 2034 4750 
z
" transform="scale(0.015625)"/>
       </defs>
       <use xlink:href="#DejaVuSans-30"/>
      </g>
     </g>
    </g>
    <g id="xtick_2">
     <g id="line2d_2">
      <g>
       <use xlink:href="#mf44cfcfbd6" x="154.406187" y="246.04" style="stroke: #000000; stroke-width: 0.8"/>
      </g>
     </g>
     <g id="text_2">
      <!-- 50 -->
      <g transform="translate(148.043687 260.638438) scale(0.1 -0.1)">
       <defs>
        <path id="DejaVuSans-35" d="M 691 4666 
L 3169 4666 
L 3169 4134 
L 1269 4134 
L 1269 2991 
Q 1406 3038 1543 3061 
Q 1681 3084 1819 3084 
Q 2600 3084 3056 2656 
Q 3513 2228 3513 1497 
Q 3513 744 3044 326 
Q 2575 -91 1722 -91 
Q 1428 -91 1123 -41 
Q 819 9 494 109 
L 494 744 
Q 775 591 1075 516 
Q 1375 441 1709 441 
Q 2250 441 2565 725 
Q 2881 1009 2881 1497 
Q 2881 1984 2565 2268 
Q 2250 2553 1709 2553 
Q 1456 2553 1204 2497 
Q 953 2441 691 2322 
L 691 4666 
z
" transform="scale(0.015625)"/>
       </defs>
       <use xlink:href="#DejaVuSans-35"/>
       <use xlink:href="#DejaVuSans-30" transform="translate(63.623047 0)"/>
      </g>
     </g>
    </g>
    <g id="xtick_3">
     <g id="line2d_3">
      <g>
       <use xlink:href="#mf44cfcfbd6" x="234.518226" y="246.04" style="stroke: #000000; stroke-width: 0.8"/>
      </g>
     </g>
     <g id="text_3">
      <!-- 100 -->
      <g transform="translate(224.974476 260.638438) scale(0.1 -0.1)">
       <defs>
        <path id="DejaVuSans-31" d="M 794 531 
L 1825 531 
L 1825 4091 
L 703 3866 
L 703 4441 
L 1819 4666 
L 2450 4666 
L 2450 531 
L 3481 531 
L 3481 0 
L 794 0 
L 794 531 
z
" transform="scale(0.015625)"/>
       </defs>
       <use xlink:href="#DejaVuSans-31"/>
       <use xlink:href="#DejaVuSans-30" transform="translate(63.623047 0)"/>
       <use xlink:href="#DejaVuSans-30" transform="translate(127.246094 0)"/>
      </g>
     </g>
    </g>
    <g id="xtick_4">
     <g id="line2d_4">
      <g>
       <use xlink:href="#mf44cfcfbd6" x="314.630265" y="246.04" style="stroke: #000000; stroke-width: 0.8"/>
      </g>
     </g>
     <g id="text_4">
      <!-- 150 -->
      <g transform="translate(305.086515 260.638438) scale(0.1 -0.1)">
       <use xlink:href="#DejaVuSans-31"/>
       <use xlink:href="#DejaVuSans-35" transform="translate(63.623047 0)"/>
       <use xlink:href="#DejaVuSans-30" transform="translate(127.246094 0)"/>
      </g>
     </g>
    </g>
    <g id="xtick_5">
     <g id="line2d_5">
      <g>
       <use xlink:href="#mf44cfcfbd6" x="394.742304" y="246.04" style="stroke: #000000; stroke-width: 0.8"/>
      </g>
     </g>
     <g id="text_5">
      <!-- 200 -->
      <g transform="translate(385.198554 260.638438) scale(0.1 -0.1)">
       <defs>
        <path id="DejaVuSans-32" d="M 1228 531 
L 3431 531 
L 3431 0 
L 469 0 
L 469 531 
Q 828 903 1448 1529 
Q 2069 2156 2228 2338 
Q 2531 2678 2651 2914 
Q 2772 3150 2772 3378 
Q 2772 3750 2511 3984 
Q 2250 4219 1831 4219 
Q 1534 4219 1204 4116 
Q 875 4013 500 3803 
L 500 4441 
Q 881 4594 1212 4672 
Q 1544 4750 1819 4750 
Q 2544 4750 2975 4387 
Q 3406 4025 3406 3419 
Q 3406 3131 3298 2873 
Q 3191 2616 2906 2266 
Q 2828 2175 2409 1742 
Q 1991 1309 1228 531 
z
" transform="scale(0.015625)"/>
       </defs>
       <use xlink:href="#DejaVuSans-32"/>
       <use xlink:href="#DejaVuSans-30" transform="translate(63.623047 0)"/>
       <use xlink:href="#DejaVuSans-30" transform="translate(127.246094 0)"/>
      </g>
     </g>
    </g>
    <g id="xtick_6">
     <g id="line2d_6">
      <g>
       <use xlink:href="#mf44cfcfbd6" x="474.854343" y="246.04" style="stroke: #000000; stroke-width: 0.8"/>
      </g>
     </g>
     <g id="text_6">
      <!-- 250 -->
      <g transform="translate(465.310593 260.638438) scale(0.1 -0.1)">
       <use xlink:href="#DejaVuSans-32"/>
       <use xlink:href="#DejaVuSans-35" transform="translate(63.623047 0)"/>
       <use xlink:href="#DejaVuSans-30" transform="translate(127.246094 0)"/>
      </g>
     </g>
    </g>
    <g id="text_7">
     <!-- Frame index (arbitrary spacing) -->
     <g transform="translate(194.742656 274.316562) scale(0.1 -0.1)">
      <defs>
       <path id="DejaVuSans-46" d="M 628 4666 
L 3309 4666 
L 3309 4134 
L 1259 4134 
L 1259 2759 
L 3109 2759 
L 3109 2228 
L 1259 2228 
L 1259 0 
L 628 0 
L 628 4666 
z
" transform="scale(0.015625)"/>
       <path id="DejaVuSans-72" d="M 2631 2963 
Q 2534 3019 2420 3045 
Q 2306 3072 2169 3072 
Q 1681 3072 1420 2755 
Q 1159 2438 1159 1844 
L 1159 0 
L 581 0 
L 581 3500 
L 1159 3500 
L 1159 2956 
Q 1341 3275 1631 3429 
Q 1922 3584 2338 3584 
Q 2397 3584 2469 3576 
Q 2541 3569 2628 3553 
L 2631 2963 
z
" transform="scale(0.015625)"/>
       <path id="DejaVuSans-61" d="M 2194 1759 
Q 1497 1759 1228 1600 
Q 959 1441 959 1056 
Q 959 750 1161 570 
Q 1363 391 1709 391 
Q 2188 391 2477 730 
Q 2766 1069 2766 1631 
L 2766 1759 
L 2194 1759 
z
M 3341 1997 
L 3341 0 
L 2766 0 
L 2766 531 
Q 2569 213 2275 61 
Q 1981 -91 1556 -91 
Q 1019 -91 701 211 
Q 384 513 384 1019 
Q 384 1609 779 1909 
Q 1175 2209 1959 2209 
L 2766 2209 
L 2766 2266 
Q 2766 2663 2505 2880 
Q 2244 3097 1772 3097 
Q 1472 3097 1187 3025 
Q 903 2953 641 2809 
L 641 3341 
Q 956 3463 1253 3523 
Q 1550 3584 1831 3584 
Q 2591 3584 2966 3190 
Q 3341 2797 3341 1997 
z
" transform="scale(0.015625)"/>
       <path id="DejaVuSans-6d" d="M 3328 2828 
Q 3544 3216 3844 3400 
Q 4144 3584 4550 3584 
Q 5097 3584 5394 3201 
Q 5691 2819 5691 2113 
L 5691 0 
L 5113 0 
L 5113 2094 
Q 5113 2597 4934 2840 
Q 4756 3084 4391 3084 
Q 3944 3084 3684 2787 
Q 3425 2491 3425 1978 
L 3425 0 
L 2847 0 
L 2847 2094 
Q 2847 2600 2669 2842 
Q 2491 3084 2119 3084 
Q 1678 3084 1418 2786 
Q 1159 2488 1159 1978 
L 1159 0 
L 581 0 
L 581 3500 
L 1159 3500 
L 1159 2956 
Q 1356 3278 1631 3431 
Q 1906 3584 2284 3584 
Q 2666 3584 2933 3390 
Q 3200 3197 3328 2828 
z
" transform="scale(0.015625)"/>
       <path id="DejaVuSans-65" d="M 3597 1894 
L 3597 1613 
L 953 1613 
Q 991 1019 1311 708 
Q 1631 397 2203 397 
Q 2534 397 2845 478 
Q 3156 559 3463 722 
L 3463 178 
Q 3153 47 2828 -22 
Q 2503 -91 2169 -91 
Q 1331 -91 842 396 
Q 353 884 353 1716 
Q 353 2575 817 3079 
Q 1281 3584 2069 3584 
Q 2775 3584 3186 3129 
Q 3597 2675 3597 1894 
z
M 3022 2063 
Q 3016 2534 2758 2815 
Q 2500 3097 2075 3097 
Q 1594 3097 1305 2825 
Q 1016 2553 972 2059 
L 3022 2063 
z
" transform="scale(0.015625)"/>
       <path id="DejaVuSans-20" transform="scale(0.015625)"/>
       <path id="DejaVuSans-69" d="M 603 3500 
L 1178 3500 
L 1178 0 
L 603 0 
L 603 3500 
z
M 603 4863 
L 1178 4863 
L 1178 4134 
L 603 4134 
L 603 4863 
z
" transform="scale(0.015625)"/>
       <path id="DejaVuSans-6e" d="M 3513 2113 
L 3513 0 
L 2938 0 
L 2938 2094 
Q 2938 2591 2744 2837 
Q 2550 3084 2163 3084 
Q 1697 3084 1428 2787 
Q 1159 2491 1159 1978 
L 1159 0 
L 581 0 
L 581 3500 
L 1159 3500 
L 1159 2956 
Q 1366 3272 1645 3428 
Q 1925 3584 2291 3584 
Q 2894 3584 3203 3211 
Q 3513 2838 3513 2113 
z
" transform="scale(0.015625)"/>
       <path id="DejaVuSans-64" d="M 2906 2969 
L 2906 4863 
L 3481 4863 
L 3481 0 
L 2906 0 
L 2906 525 
Q 2725 213 2448 61 
Q 2172 -91 1784 -91 
Q 1150 -91 751 415 
Q 353 922 353 1747 
Q 353 2572 751 3078 
Q 1150 3584 1784 3584 
Q 2172 3584 2448 3432 
Q 2725 3281 2906 2969 
z
M 947 1747 
Q 947 1113 1208 752 
Q 1469 391 1925 391 
Q 2381 391 2643 752 
Q 2906 1113 2906 1747 
Q 2906 2381 2643 2742 
Q 2381 3103 1925 3103 
Q 1469 3103 1208 2742 
Q 947 2381 947 1747 
z
" transform="scale(0.015625)"/>
       <path id="DejaVuSans-78" d="M 3513 3500 
L 2247 1797 
L 3578 0 
L 2900 0 
L 1881 1375 
L 863 0 
L 184 0 
L 1544 1831 
L 300 3500 
L 978 3500 
L 1906 2253 
L 2834 3500 
L 3513 3500 
z
" transform="scale(0.015625)"/>
       <path id="DejaVuSans-28" d="M 1984 4856 
Q 1566 4138 1362 3434 
Q 1159 2731 1159 2009 
Q 1159 1288 1364 580 
Q 1569 -128 1984 -844 
L 1484 -844 
Q 1016 -109 783 600 
Q 550 1309 550 2009 
Q 550 2706 781 3412 
Q 1013 4119 1484 4856 
L 1984 4856 
z
" transform="scale(0.015625)"/>
       <path id="DejaVuSans-62" d="M 3116 1747 
Q 3116 2381 2855 2742 
Q 2594 3103 2138 3103 
Q 1681 3103 1420 2742 
Q 1159 2381 1159 1747 
Q 1159 1113 1420 752 
Q 1681 391 2138 391 
Q 2594 391 2855 752 
Q 3116 1113 3116 1747 
z
M 1159 2969 
Q 1341 3281 1617 3432 
Q 1894 3584 2278 3584 
Q 2916 3584 3314 3078 
Q 3713 2572 3713 1747 
Q 3713 922 3314 415 
Q 2916 -91 2278 -91 
Q 1894 -91 1617 61 
Q 1341 213 1159 525 
L 1159 0 
L 581 0 
L 581 4863 
L 1159 4863 
L 1159 2969 
z
" transform="scale(0.015625)"/>
       <path id="DejaVuSans-74" d="M 1172 4494 
L 1172 3500 
L 2356 3500 
L 2356 3053 
L 1172 3053 
L 1172 1153 
Q 1172 725 1289 603 
Q 1406 481 1766 481 
L 2356 481 
L 2356 0 
L 1766 0 
Q 1100 0 847 248 
Q 594 497 594 1153 
L 594 3053 
L 172 3053 
L 172 3500 
L 594 3500 
L 594 4494 
L 1172 4494 
z
" transform="scale(0.015625)"/>
       <path id="DejaVuSans-79" d="M 2059 -325 
Q 1816 -950 1584 -1140 
Q 1353 -1331 966 -1331 
L 506 -1331 
L 506 -850 
L 844 -850 
Q 1081 -850 1212 -737 
Q 1344 -625 1503 -206 
L 1606 56 
L 191 3500 
L 800 3500 
L 1894 763 
L 2988 3500 
L 3597 3500 
L 2059 -325 
z
" transform="scale(0.015625)"/>
       <path id="DejaVuSans-73" d="M 2834 3397 
L 2834 2853 
Q 2591 2978 2328 3040 
Q 2066 3103 1784 3103 
Q 1356 3103 1142 2972 
Q 928 2841 928 2578 
Q 928 2378 1081 2264 
Q 1234 2150 1697 2047 
L 1894 2003 
Q 2506 1872 2764 1633 
Q 3022 1394 3022 966 
Q 3022 478 2636 193 
Q 2250 -91 1575 -91 
Q 1294 -91 989 -36 
Q 684 19 347 128 
L 347 722 
Q 666 556 975 473 
Q 1284 391 1588 391 
Q 1994 391 2212 530 
Q 2431 669 2431 922 
Q 2431 1156 2273 1281 
Q 2116 1406 1581 1522 
L 1381 1569 
Q 847 1681 609 1914 
Q 372 2147 372 2553 
Q 372 3047 722 3315 
Q 1072 3584 1716 3584 
Q 2034 3584 2315 3537 
Q 2597 3491 2834 3397 
z
" transform="scale(0.015625)"/>
       <path id="DejaVuSans-70" d="M 1159 525 
L 1159 -1331 
L 581 -1331 
L 581 3500 
L 1159 3500 
L 1159 2969 
Q 1341 3281 1617 3432 
Q 1894 3584 2278 3584 
Q 2916 3584 3314 3078 
Q 3713 2572 3713 1747 
Q 3713 922 3314 415 
Q 2916 -91 2278 -91 
Q 1894 -91 1617 61 
Q 1341 213 1159 525 
z
M 3116 1747 
Q 3116 2381 2855 2742 
Q 2594 3103 2138 3103 
Q 1681 3103 1420 2742 
Q 1159 2381 1159 1747 
Q 1159 1113 1420 752 
Q 1681 391 2138 391 
Q 2594 391 2855 752 
Q 3116 1113 3116 1747 
z
" transform="scale(0.015625)"/>
       <path id="DejaVuSans-63" d="M 3122 3366 
L 3122 2828 
Q 2878 2963 2633 3030 
Q 2388 3097 2138 3097 
Q 1578 3097 1268 2742 
Q 959 2388 959 1747 
Q 959 1106 1268 751 
Q 1578 397 2138 397 
Q 2388 397 2633 464 
Q 2878 531 3122 666 
L 3122 134 
Q 2881 22 2623 -34 
Q 2366 -91 2075 -91 
Q 1284 -91 818 406 
Q 353 903 353 1747 
Q 353 2603 823 3093 
Q 1294 3584 2113 3584 
Q 2378 3584 2631 3529 
Q 2884 3475 3122 3366 
z
" transform="scale(0.015625)"/>
       <path id="DejaVuSans-67" d="M 2906 1791 
Q 2906 2416 2648 2759 
Q 2391 3103 1925 3103 
Q 1463 3103 1205 2759 
Q 947 2416 947 1791 
Q 947 1169 1205 825 
Q 1463 481 1925 481 
Q 2391 481 2648 825 
Q 2906 1169 2906 1791 
z
M 3481 434 
Q 3481 -459 3084 -895 
Q 2688 -1331 1869 -1331 
Q 1566 -1331 1297 -1286 
Q 1028 -1241 775 -1147 
L 775 -588 
Q 1028 -725 1275 -790 
Q 1522 -856 1778 -856 
Q 2344 -856 2625 -561 
Q 2906 -266 2906 331 
L 2906 616 
Q 2728 306 2450 153 
Q 2172 0 1784 0 
Q 1141 0 747 490 
Q 353 981 353 1791 
Q 353 2603 747 3093 
Q 1141 3584 1784 3584 
Q 2172 3584 2450 3431 
Q 2728 3278 2906 2969 
L 2906 3500 
L 3481 3500 
L 3481 434 
z
" transform="scale(0.015625)"/>
       <path id="DejaVuSans-29" d="M 513 4856 
L 1013 4856 
Q 1481 4119 1714 3412 
Q 1947 2706 1947 2009 
Q 1947 1309 1714 600 
Q 1481 -109 1013 -844 
L 513 -844 
Q 928 -128 1133 580 
Q 1338 1288 1338 2009 
Q 1338 2731 1133 3434 
Q 928 4138 513 4856 
z
" transform="scale(0.015625)"/>
      </defs>
      <use xlink:href="#DejaVuSans-46"/>
      <use xlink:href="#DejaVuSans-72" transform="translate(50.269531 0)"/>
      <use xlink:href="#DejaVuSans-61" transform="translate(91.382812 0)"/>
      <use xlink:href="#DejaVuSans-6d" transform="translate(152.662109 0)"/>
      <use xlink:href="#DejaVuSans-65" transform="translate(250.074219 0)"/>
      <use xlink:href="#DejaVuSans-20" transform="translate(311.597656 0)"/>
      <use xlink:href="#DejaVuSans-69" transform="translate(343.384766 0)"/>
      <use xlink:href="#DejaVuSans-6e" transform="translate(371.167969 0)"/>
      <use xlink:href="#DejaVuSans-64" transform="translate(434.546875 0)"/>
      <use xlink:href="#DejaVuSans-65" transform="translate(498.023438 0)"/>
      <use xlink:href="#DejaVuSans-78" transform="translate(557.796875 0)"/>
      <use xlink:href="#DejaVuSans-20" transform="translate(616.976562 0)"/>
      <use xlink:href="#DejaVuSans-28" transform="translate(648.763672 0)"/>
      <use xlink:href="#DejaVuSans-61" transform="translate(687.777344 0)"/>
      <use xlink:href="#DejaVuSans-72" transform="translate(749.056641 0)"/>
      <use xlink:href="#DejaVuSans-62" transform="translate(790.169922 0)"/>
      <use xlink:href="#DejaVuSans-69" transform="translate(853.646484 0)"/>
      <use xlink:href="#DejaVuSans-74" transform="translate(881.429688 0)"/>
      <use xlink:href="#DejaVuSans-72" transform="translate(920.638672 0)"/>
      <use xlink:href="#DejaVuSans-61" transform="translate(961.751953 0)"/>
      <use xlink:href="#DejaVuSans-72" transform="translate(1023.03125 0)"/>
      <use xlink:href="#DejaVuSans-79" transform="translate(1064.144531 0)"/>
      <use xlink:href="#DejaVuSans-20" transform="translate(1123.324219 0)"/>
      <use xlink:href="#DejaVuSans-73" transform="translate(1155.111328 0)"/>
      <use xlink:href="#DejaVuSans-70" transform="translate(1207.210938 0)"/>
      <use xlink:href="#DejaVuSans-61" transform="translate(1270.6875 0)"/>
      <use xlink:href="#DejaVuSans-63" transform="translate(1331.966797 0)"/>
      <use xlink:href="#DejaVuSans-69" transform="translate(1386.947266 0)"/>
      <use xlink:href="#DejaVuSans-6e" transform="translate(1414.730469 0)"/>
      <use xlink:href="#DejaVuSans-67" transform="translate(1478.109375 0)"/>
      <use xlink:href="#DejaVuSans-29" transform="translate(1541.585938 0)"/>
     </g>
    </g>
   </g>
   <g id="matplotlib.axis_2">
    <g id="ytick_1">
     <g id="line2d_7">
      <defs>
       <path id="md7064d5ce1" d="M 0 0 
L -3.5 0 
" style="stroke: #000000; stroke-width: 0.8"/>
      </defs>
      <g>
       <use xlink:href="#md7064d5ce1" x="54.34625" y="245.38918" style="stroke: #000000; stroke-width: 0.8"/>
      </g>
     </g>
     <g id="text_8">
      <!-- 0.72 -->
      <g transform="translate(25.080625 249.188399) scale(0.1 -0.1)">
       <defs>
        <path id="DejaVuSans-2e" d="M 684 794 
L 1344 794 
L 1344 0 
L 684 0 
L 684 794 
z
" transform="scale(0.015625)"/>
        <path id="DejaVuSans-37" d="M 525 4666 
L 3525 4666 
L 3525 4397 
L 1831 0 
L 1172 0 
L 2766 4134 
L 525 4134 
L 525 4666 
z
" transform="scale(0.015625)"/>
       </defs>
       <use xlink:href="#DejaVuSans-30"/>
       <use xlink:href="#DejaVuSans-2e" transform="translate(63.623047 0)"/>
       <use xlink:href="#DejaVuSans-37" transform="translate(95.410156 0)"/>
       <use xlink:href="#DejaVuSans-32" transform="translate(159.033203 0)"/>
      </g>
     </g>
    </g>
    <g id="ytick_2">
     <g id="line2d_8">
      <g>
       <use xlink:href="#md7064d5ce1" x="54.34625" y="218.205446" style="stroke: #000000; stroke-width: 0.8"/>
      </g>
     </g>
     <g id="text_9">
      <!-- 0.73 -->
      <g transform="translate(25.080625 222.004665) scale(0.1 -0.1)">
       <defs>
        <path id="DejaVuSans-33" d="M 2597 2516 
Q 3050 2419 3304 2112 
Q 3559 1806 3559 1356 
Q 3559 666 3084 287 
Q 2609 -91 1734 -91 
Q 1441 -91 1130 -33 
Q 819 25 488 141 
L 488 750 
Q 750 597 1062 519 
Q 1375 441 1716 441 
Q 2309 441 2620 675 
Q 2931 909 2931 1356 
Q 2931 1769 2642 2001 
Q 2353 2234 1838 2234 
L 1294 2234 
L 1294 2753 
L 1863 2753 
Q 2328 2753 2575 2939 
Q 2822 3125 2822 3475 
Q 2822 3834 2567 4026 
Q 2313 4219 1838 4219 
Q 1578 4219 1281 4162 
Q 984 4106 628 3988 
L 628 4550 
Q 988 4650 1302 4700 
Q 1616 4750 1894 4750 
Q 2613 4750 3031 4423 
Q 3450 4097 3450 3541 
Q 3450 3153 3228 2886 
Q 3006 2619 2597 2516 
z
" transform="scale(0.015625)"/>
       </defs>
       <use xlink:href="#DejaVuSans-30"/>
       <use xlink:href="#DejaVuSans-2e" transform="translate(63.623047 0)"/>
       <use xlink:href="#DejaVuSans-37" transform="translate(95.410156 0)"/>
       <use xlink:href="#DejaVuSans-33" transform="translate(159.033203 0)"/>
      </g>
     </g>
    </g>
    <g id="ytick_3">
     <g id="line2d_9">
      <g>
       <use xlink:href="#md7064d5ce1" x="54.34625" y="191.021713" style="stroke: #000000; stroke-width: 0.8"/>
      </g>
     </g>
     <g id="text_10">
      <!-- 0.74 -->
      <g transform="translate(25.080625 194.820931) scale(0.1 -0.1)">
       <defs>
        <path id="DejaVuSans-34" d="M 2419 4116 
L 825 1625 
L 2419 1625 
L 2419 4116 
z
M 2253 4666 
L 3047 4666 
L 3047 1625 
L 3713 1625 
L 3713 1100 
L 3047 1100 
L 3047 0 
L 2419 0 
L 2419 1100 
L 313 1100 
L 313 1709 
L 2253 4666 
z
" transform="scale(0.015625)"/>
       </defs>
       <use xlink:href="#DejaVuSans-30"/>
       <use xlink:href="#DejaVuSans-2e" transform="translate(63.623047 0)"/>
       <use xlink:href="#DejaVuSans-37" transform="translate(95.410156 0)"/>
       <use xlink:href="#DejaVuSans-34" transform="translate(159.033203 0)"/>
      </g>
     </g>
    </g>
    <g id="ytick_4">
     <g id="line2d_10">
      <g>
       <use xlink:href="#md7064d5ce1" x="54.34625" y="163.837979" style="stroke: #000000; stroke-width: 0.8"/>
      </g>
     </g>
     <g id="text_11">
      <!-- 0.75 -->
      <g transform="translate(25.080625 167.637198) scale(0.1 -0.1)">
       <use xlink:href="#DejaVuSans-30"/>
       <use xlink:href="#DejaVuSans-2e" transform="translate(63.623047 0)"/>
       <use xlink:href="#DejaVuSans-37" transform="translate(95.410156 0)"/>
       <use xlink:href="#DejaVuSans-35" transform="translate(159.033203 0)"/>
      </g>
     </g>
    </g>
    <g id="ytick_5">
     <g id="line2d_11">
      <g>
       <use xlink:href="#md7064d5ce1" x="54.34625" y="136.654245" style="stroke: #000000; stroke-width: 0.8"/>
      </g>
     </g>
     <g id="text_12">
      <!-- 0.76 -->
      <g transform="translate(25.080625 140.453464) scale(0.1 -0.1)">
       <defs>
        <path id="DejaVuSans-36" d="M 2113 2584 
Q 1688 2584 1439 2293 
Q 1191 2003 1191 1497 
Q 1191 994 1439 701 
Q 1688 409 2113 409 
Q 2538 409 2786 701 
Q 3034 994 3034 1497 
Q 3034 2003 2786 2293 
Q 2538 2584 2113 2584 
z
M 3366 4563 
L 3366 3988 
Q 3128 4100 2886 4159 
Q 2644 4219 2406 4219 
Q 1781 4219 1451 3797 
Q 1122 3375 1075 2522 
Q 1259 2794 1537 2939 
Q 1816 3084 2150 3084 
Q 2853 3084 3261 2657 
Q 3669 2231 3669 1497 
Q 3669 778 3244 343 
Q 2819 -91 2113 -91 
Q 1303 -91 875 529 
Q 447 1150 447 2328 
Q 447 3434 972 4092 
Q 1497 4750 2381 4750 
Q 2619 4750 2861 4703 
Q 3103 4656 3366 4563 
z
" transform="scale(0.015625)"/>
       </defs>
       <use xlink:href="#DejaVuSans-30"/>
       <use xlink:href="#DejaVuSans-2e" transform="translate(63.623047 0)"/>
       <use xlink:href="#DejaVuSans-37" transform="translate(95.410156 0)"/>
       <use xlink:href="#DejaVuSans-36" transform="translate(159.033203 0)"/>
      </g>
     </g>
    </g>
    <g id="ytick_6">
     <g id="line2d_12">
      <g>
       <use xlink:href="#md7064d5ce1" x="54.34625" y="109.470512" style="stroke: #000000; stroke-width: 0.8"/>
      </g>
     </g>
     <g id="text_13">
      <!-- 0.77 -->
      <g transform="translate(25.080625 113.26973) scale(0.1 -0.1)">
       <use xlink:href="#DejaVuSans-30"/>
       <use xlink:href="#DejaVuSans-2e" transform="translate(63.623047 0)"/>
       <use xlink:href="#DejaVuSans-37" transform="translate(95.410156 0)"/>
       <use xlink:href="#DejaVuSans-37" transform="translate(159.033203 0)"/>
      </g>
     </g>
    </g>
    <g id="ytick_7">
     <g id="line2d_13">
      <g>
       <use xlink:href="#md7064d5ce1" x="54.34625" y="82.286778" style="stroke: #000000; stroke-width: 0.8"/>
      </g>
     </g>
     <g id="text_14">
      <!-- 0.78 -->
      <g transform="translate(25.080625 86.085997) scale(0.1 -0.1)">
       <defs>
        <path id="DejaVuSans-38" d="M 2034 2216 
Q 1584 2216 1326 1975 
Q 1069 1734 1069 1313 
Q 1069 891 1326 650 
Q 1584 409 2034 409 
Q 2484 409 2743 651 
Q 3003 894 3003 1313 
Q 3003 1734 2745 1975 
Q 2488 2216 2034 2216 
z
M 1403 2484 
Q 997 2584 770 2862 
Q 544 3141 544 3541 
Q 544 4100 942 4425 
Q 1341 4750 2034 4750 
Q 2731 4750 3128 4425 
Q 3525 4100 3525 3541 
Q 3525 3141 3298 2862 
Q 3072 2584 2669 2484 
Q 3125 2378 3379 2068 
Q 3634 1759 3634 1313 
Q 3634 634 3220 271 
Q 2806 -91 2034 -91 
Q 1263 -91 848 271 
Q 434 634 434 1313 
Q 434 1759 690 2068 
Q 947 2378 1403 2484 
z
M 1172 3481 
Q 1172 3119 1398 2916 
Q 1625 2713 2034 2713 
Q 2441 2713 2670 2916 
Q 2900 3119 2900 3481 
Q 2900 3844 2670 4047 
Q 2441 4250 2034 4250 
Q 1625 4250 1398 4047 
Q 1172 3844 1172 3481 
z
" transform="scale(0.015625)"/>
       </defs>
       <use xlink:href="#DejaVuSans-30"/>
       <use xlink:href="#DejaVuSans-2e" transform="translate(63.623047 0)"/>
       <use xlink:href="#DejaVuSans-37" transform="translate(95.410156 0)"/>
       <use xlink:href="#DejaVuSans-38" transform="translate(159.033203 0)"/>
      </g>
     </g>
    </g>
    <g id="ytick_8">
     <g id="line2d_14">
      <g>
       <use xlink:href="#md7064d5ce1" x="54.34625" y="55.103044" style="stroke: #000000; stroke-width: 0.8"/>
      </g>
     </g>
     <g id="text_15">
      <!-- 0.79 -->
      <g transform="translate(25.080625 58.902263) scale(0.1 -0.1)">
       <defs>
        <path id="DejaVuSans-39" d="M 703 97 
L 703 672 
Q 941 559 1184 500 
Q 1428 441 1663 441 
Q 2288 441 2617 861 
Q 2947 1281 2994 2138 
Q 2813 1869 2534 1725 
Q 2256 1581 1919 1581 
Q 1219 1581 811 2004 
Q 403 2428 403 3163 
Q 403 3881 828 4315 
Q 1253 4750 1959 4750 
Q 2769 4750 3195 4129 
Q 3622 3509 3622 2328 
Q 3622 1225 3098 567 
Q 2575 -91 1691 -91 
Q 1453 -91 1209 -44 
Q 966 3 703 97 
z
M 1959 2075 
Q 2384 2075 2632 2365 
Q 2881 2656 2881 3163 
Q 2881 3666 2632 3958 
Q 2384 4250 1959 4250 
Q 1534 4250 1286 3958 
Q 1038 3666 1038 3163 
Q 1038 2656 1286 2365 
Q 1534 2075 1959 2075 
z
" transform="scale(0.015625)"/>
       </defs>
       <use xlink:href="#DejaVuSans-30"/>
       <use xlink:href="#DejaVuSans-2e" transform="translate(63.623047 0)"/>
       <use xlink:href="#DejaVuSans-37" transform="translate(95.410156 0)"/>
       <use xlink:href="#DejaVuSans-39" transform="translate(159.033203 0)"/>
      </g>
     </g>
    </g>
    <g id="ytick_9">
     <g id="line2d_15">
      <g>
       <use xlink:href="#md7064d5ce1" x="54.34625" y="27.91931" style="stroke: #000000; stroke-width: 0.8"/>
      </g>
     </g>
     <g id="text_16">
      <!-- 0.80 -->
      <g transform="translate(25.080625 31.718529) scale(0.1 -0.1)">
       <use xlink:href="#DejaVuSans-30"/>
       <use xlink:href="#DejaVuSans-2e" transform="translate(63.623047 0)"/>
       <use xlink:href="#DejaVuSans-38" transform="translate(95.410156 0)"/>
       <use xlink:href="#DejaVuSans-30" transform="translate(159.033203 0)"/>
      </g>
     </g>
    </g>
    <g id="text_17">
     <!-- RMSD (Å) -->
     <g transform="translate(19.000938 160.183437) rotate(-90) scale(0.1 -0.1)">
      <defs>
       <path id="DejaVuSans-52" d="M 2841 2188 
Q 3044 2119 3236 1894 
Q 3428 1669 3622 1275 
L 4263 0 
L 3584 0 
L 2988 1197 
Q 2756 1666 2539 1819 
Q 2322 1972 1947 1972 
L 1259 1972 
L 1259 0 
L 628 0 
L 628 4666 
L 2053 4666 
Q 2853 4666 3247 4331 
Q 3641 3997 3641 3322 
Q 3641 2881 3436 2590 
Q 3231 2300 2841 2188 
z
M 1259 4147 
L 1259 2491 
L 2053 2491 
Q 2509 2491 2742 2702 
Q 2975 2913 2975 3322 
Q 2975 3731 2742 3939 
Q 2509 4147 2053 4147 
L 1259 4147 
z
" transform="scale(0.015625)"/>
       <path id="DejaVuSans-4d" d="M 628 4666 
L 1569 4666 
L 2759 1491 
L 3956 4666 
L 4897 4666 
L 4897 0 
L 4281 0 
L 4281 4097 
L 3078 897 
L 2444 897 
L 1241 4097 
L 1241 0 
L 628 0 
L 628 4666 
z
" transform="scale(0.015625)"/>
       <path id="DejaVuSans-53" d="M 3425 4513 
L 3425 3897 
Q 3066 4069 2747 4153 
Q 2428 4238 2131 4238 
Q 1616 4238 1336 4038 
Q 1056 3838 1056 3469 
Q 1056 3159 1242 3001 
Q 1428 2844 1947 2747 
L 2328 2669 
Q 3034 2534 3370 2195 
Q 3706 1856 3706 1288 
Q 3706 609 3251 259 
Q 2797 -91 1919 -91 
Q 1588 -91 1214 -16 
Q 841 59 441 206 
L 441 856 
Q 825 641 1194 531 
Q 1563 422 1919 422 
Q 2459 422 2753 634 
Q 3047 847 3047 1241 
Q 3047 1584 2836 1778 
Q 2625 1972 2144 2069 
L 1759 2144 
Q 1053 2284 737 2584 
Q 422 2884 422 3419 
Q 422 4038 858 4394 
Q 1294 4750 2059 4750 
Q 2388 4750 2728 4690 
Q 3069 4631 3425 4513 
z
" transform="scale(0.015625)"/>
       <path id="DejaVuSans-44" d="M 1259 4147 
L 1259 519 
L 2022 519 
Q 2988 519 3436 956 
Q 3884 1394 3884 2338 
Q 3884 3275 3436 3711 
Q 2988 4147 2022 4147 
L 1259 4147 
z
M 628 4666 
L 1925 4666 
Q 3281 4666 3915 4102 
Q 4550 3538 4550 2338 
Q 4550 1131 3912 565 
Q 3275 0 1925 0 
L 628 0 
L 628 4666 
z
" transform="scale(0.015625)"/>
       <path id="DejaVuSans-c5" d="M 2663 5081 
Q 2663 5278 2523 5417 
Q 2384 5556 2188 5556 
Q 1988 5556 1852 5420 
Q 1716 5284 1716 5081 
Q 1716 4884 1853 4746 
Q 1991 4609 2188 4609 
Q 2384 4609 2523 4746 
Q 2663 4884 2663 5081 
z
M 2188 4044 
L 1338 1722 
L 3041 1722 
L 2188 4044 
z
M 1716 4366 
Q 1525 4494 1428 4673 
Q 1331 4853 1331 5081 
Q 1331 5441 1579 5691 
Q 1828 5941 2188 5941 
Q 2544 5941 2795 5689 
Q 3047 5438 3047 5081 
Q 3047 4863 2948 4678 
Q 2850 4494 2663 4366 
L 4325 0 
L 3669 0 
L 3244 1197 
L 1141 1197 
L 716 0 
L 50 0 
L 1716 4366 
z
" transform="scale(0.015625)"/>
      </defs>
      <use xlink:href="#DejaVuSans-52"/>
      <use xlink:href="#DejaVuSans-4d" transform="translate(69.482422 0)"/>
      <use xlink:href="#DejaVuSans-53" transform="translate(155.761719 0)"/>
      <use xlink:href="#DejaVuSans-44" transform="translate(219.238281 0)"/>
      <use xlink:href="#DejaVuSans-20" transform="translate(296.240234 0)"/>
      <use xlink:href="#DejaVuSans-28" transform="translate(328.027344 0)"/>
      <use xlink:href="#DejaVuSans-c5" transform="translate(367.041016 0)"/>
      <use xlink:href="#DejaVuSans-29" transform="translate(435.449219 0)"/>
     </g>
    </g>
   </g>
   <g id="line2d_16">
    <path d="M 74.294148 103.141438 
L 75.896389 75.131713 
L 77.498629 84.158113 
L 79.10087 69.295476 
L 80.703111 63.381142 
L 82.305352 67.809196 
L 83.907592 60.119363 
L 85.509833 54.978062 
L 87.112074 59.06278 
L 88.714315 50.060198 
L 90.316556 60.968874 
L 91.918796 55.663926 
L 93.521037 57.316122 
L 95.123278 55.448915 
L 96.725519 50.366755 
L 98.327759 58.930566 
L 99.93 60.354141 
L 101.532241 55.031694 
L 103.134482 61.688925 
L 104.736723 56.407147 
L 106.338963 48.903969 
L 107.941204 56.648892 
L 109.543445 59.733251 
L 111.145686 52.250488 
L 112.747926 60.418952 
L 114.350167 54.178132 
L 115.952408 62.773862 
L 117.554649 54.824136 
L 119.15689 49.768224 
L 120.75913 56.748539 
L 122.361371 56.365019 
L 123.963612 58.0783 
L 125.565853 64.758377 
L 127.168094 59.273416 
L 128.770334 67.074725 
L 130.372575 51.387853 
L 131.974816 63.932036 
L 133.577057 74.24607 
L 135.179297 56.791638 
L 136.781538 77.485003 
L 138.383779 57.767693 
L 139.98602 64.068949 
L 141.588261 66.907026 
L 143.190501 49.989392 
L 144.792742 60.184498 
L 146.394983 54.245211 
L 147.997224 59.183005 
L 149.599464 59.927036 
L 151.201705 64.462515 
L 152.803946 56.818373 
L 154.406187 60.628454 
L 156.008428 62.522233 
L 157.610668 54.862051 
L 159.212909 52.744025 
L 160.81515 66.079227 
L 162.417391 60.957208 
L 164.019631 55.037527 
L 165.621872 61.750819 
L 167.224113 55.535762 
L 168.826354 64.598132 
L 170.428595 63.331075 
L 172.030835 65.516343 
L 173.633076 55.222724 
L 175.235317 58.703079 
L 176.837558 60.712546 
L 180.042039 53.407366 
L 181.64428 57.428407 
L 183.246521 50.955401 
L 184.848762 53.681841 
L 186.451002 56.658451 
L 188.053243 53.828638 
L 189.655484 56.57922 
L 191.257725 47.87963 
L 192.859966 56.691991 
L 194.462206 48.191371 
L 196.064447 57.325357 
L 197.666688 51.321098 
L 199.268929 49.903518 
L 200.871169 44.736779 
L 202.47341 43.464862 
L 204.075651 52.948828 
L 205.677892 47.445072 
L 207.280133 46.81446 
L 208.882373 49.922313 
L 210.484614 44.421473 
L 212.086855 56.905544 
L 213.689096 53.402667 
L 215.291336 53.833013 
L 216.893577 54.026636 
L 220.098059 65.463036 
L 221.7003 58.42828 
L 223.30254 67.425515 
L 224.904781 64.901772 
L 226.507022 50.97128 
L 228.109263 61.108542 
L 229.711504 49.653509 
L 231.313744 50.385226 
L 232.915985 50.192413 
L 234.518226 53.683947 
L 236.120467 53.192031 
L 237.722707 55.557149 
L 239.324948 57.369915 
L 240.927189 62.173064 
L 242.52943 49.359915 
L 244.131671 61.441671 
L 245.733911 53.108263 
L 247.336152 50.705717 
L 248.938393 59.810862 
L 250.540634 57.467132 
L 252.142874 55.988143 
L 253.745115 56.139477 
L 255.347356 60.891425 
L 256.949597 60.247527 
L 258.551838 49.336259 
L 260.154078 62.084272 
L 261.756319 54.300139 
L 263.35856 58.995863 
L 264.960801 55.189184 
L 266.563041 58.115566 
L 268.165282 64.651763 
L 269.767523 54.18121 
L 271.369764 60.949106 
L 272.972005 55.021486 
L 274.574245 53.730125 
L 276.176486 54.103437 
L 277.778727 56.990932 
L 279.380968 56.35951 
L 280.983209 53.420976 
L 282.585449 57.238997 
L 284.18769 49.353109 
L 285.789931 57.331839 
L 287.392172 54.939176 
L 288.994412 53.431832 
L 290.596653 56.061541 
L 292.198894 54.330438 
L 293.801135 56.793421 
L 295.403376 59.768249 
L 297.005616 54.225606 
L 298.607857 49.702441 
L 300.210098 47.272674 
L 301.812339 53.316955 
L 303.414579 53.717487 
L 305.01682 48.373166 
L 306.619061 48.110681 
L 308.221302 59.157242 
L 309.823543 47.888379 
L 311.425783 63.756722 
L 313.028024 49.011879 
L 314.630265 56.333262 
L 316.232506 55.958816 
L 317.834746 48.320831 
L 319.436987 62.504734 
L 322.641469 57.437643 
L 324.24371 57.632724 
L 325.84595 60.719999 
L 327.448191 55.504814 
L 329.050432 53.964741 
L 330.652673 56.234425 
L 332.254914 56.391592 
L 333.857154 58.792518 
L 335.459395 52.437144 
L 337.061636 62.850339 
L 338.663877 60.988803 
L 340.266117 62.111655 
L 341.868358 63.742302 
L 343.470599 61.679527 
L 345.07284 53.412551 
L 346.675081 66.720208 
L 348.277321 56.419623 
L 349.879562 71.994533 
L 351.481803 61.742232 
L 353.084044 69.066531 
L 354.686284 63.93398 
L 356.288525 64.246694 
L 357.890766 71.487225 
L 359.493007 65.358042 
L 361.095248 78.77523 
L 362.697488 70.865524 
L 364.299729 70.701228 
L 365.90197 64.117072 
L 367.504211 63.043152 
L 369.106451 65.405192 
L 370.708692 53.20872 
L 372.310933 64.885731 
L 373.913174 61.079539 
L 375.515415 65.767648 
L 377.117655 65.899052 
L 378.719896 58.138898 
L 380.322137 61.097362 
L 381.924378 63.069401 
L 383.526619 70.268128 
L 385.128859 60.014207 
L 386.7311 70.359998 
L 388.333341 72.341597 
L 389.935582 69.819312 
L 391.537822 69.811048 
L 393.140063 63.387623 
L 394.742304 63.106019 
L 396.344545 65.445537 
L 397.946786 52.581025 
L 399.549026 64.301783 
L 401.151267 72.273383 
L 402.753508 60.688566 
L 404.355749 69.585182 
L 405.957989 74.870201 
L 407.56023 72.372382 
L 409.162471 78.137651 
L 410.764712 81.207103 
L 412.366953 70.507119 
L 413.969193 71.602264 
L 415.571434 80.582648 
L 417.173675 71.994695 
L 418.775916 83.734249 
L 420.378156 80.361481 
L 421.980397 80.077446 
L 423.582638 86.065017 
L 425.184879 86.211166 
L 426.78712 83.209117 
L 428.38936 94.087169 
L 429.991601 82.503487 
L 431.593842 88.832612 
L 433.196083 94.502608 
L 434.798324 84.043236 
L 436.400564 100.463445 
L 438.002805 91.54771 
L 439.605046 91.840494 
L 441.207287 89.424499 
L 442.809527 89.726843 
L 444.411768 90.467471 
L 446.014009 83.151759 
L 447.61625 89.472459 
L 449.218491 91.17456 
L 450.820731 88.697643 
L 452.422972 92.200195 
L 454.025213 95.270134 
L 455.627454 94.232022 
L 457.229694 96.307435 
L 458.831935 102.53027 
L 460.434176 94.551379 
L 462.036417 96.006225 
L 463.638658 96.063745 
L 465.240898 103.640159 
L 466.843139 98.090387 
L 468.44538 103.922412 
L 470.047621 114.826712 
L 471.649861 73.593422 
L 473.252102 233.321281 
L 473.252102 233.321281 
" clip-path="url(#pc948cf0bf0)" style="fill: none; stroke: #1f77b4; stroke-width: 1.5; stroke-linecap: square"/>
   </g>
   <g id="line2d_17">
    <path d="M 74.294148 83.834058 
L 75.896389 66.990308 
L 77.498629 61.989486 
L 79.10087 59.054193 
L 80.703111 64.834692 
L 82.305352 56.475522 
L 83.907592 46.940031 
L 85.509833 53.406394 
L 87.112074 46.962229 
L 88.714315 38.699303 
L 90.316556 45.176522 
L 91.918796 36.841818 
L 93.521037 44.0992 
L 95.123278 42.161025 
L 96.725519 49.334152 
L 98.327759 41.567355 
L 99.93 46.234077 
L 101.532241 55.355263 
L 103.134482 55.521989 
L 104.736723 45.840998 
L 106.338963 52.083114 
L 107.941204 51.378293 
L 109.543445 54.644933 
L 111.145686 49.139071 
L 112.747926 48.595306 
L 114.350167 47.741906 
L 115.952408 52.209171 
L 117.554649 47.315773 
L 119.15689 45.719477 
L 120.75913 48.087511 
L 122.361371 44.208731 
L 123.963612 37.493656 
L 125.565853 52.576488 
L 127.168094 41.973397 
L 128.770334 43.311421 
L 130.372575 42.000942 
L 131.974816 48.052675 
L 133.577057 43.005513 
L 135.179297 49.445465 
L 136.781538 45.726282 
L 138.383779 46.168617 
L 139.98602 43.228949 
L 141.588261 41.880231 
L 143.190501 46.819645 
L 144.792742 48.761384 
L 146.394983 53.73207 
L 147.997224 48.687014 
L 149.599464 51.10949 
L 152.803946 42.728446 
L 154.406187 57.313043 
L 156.008428 43.764127 
L 157.610668 52.35532 
L 159.212909 42.888853 
L 160.81515 54.047699 
L 162.417391 45.323967 
L 164.019631 48.84175 
L 165.621872 46.456055 
L 167.224113 52.949476 
L 168.826354 54.369 
L 170.428595 45.579485 
L 172.030835 53.181662 
L 173.633076 51.327093 
L 175.235317 53.326514 
L 176.837558 59.058081 
L 178.439799 51.90699 
L 180.042039 62.871727 
L 181.64428 62.274331 
L 183.246521 54.795295 
L 184.848762 51.369706 
L 186.451002 56.097026 
L 188.053243 55.433684 
L 189.655484 54.501377 
L 191.257725 54.777796 
L 192.859966 61.721168 
L 194.462206 50.369023 
L 196.064447 67.203375 
L 197.666688 53.684109 
L 199.268929 56.058463 
L 200.871169 61.475534 
L 202.47341 48.485937 
L 204.075651 61.498056 
L 205.677892 59.961062 
L 207.280133 40.29479 
L 208.882373 52.840917 
L 210.484614 50.149314 
L 212.086855 49.103263 
L 213.689096 51.810421 
L 215.291336 50.241993 
L 216.893577 45.005907 
L 218.495818 44.921977 
L 220.098059 48.105982 
L 221.7003 45.37371 
L 223.30254 42.123921 
L 224.904781 43.762668 
L 226.507022 52.933921 
L 228.109263 56.334234 
L 229.711504 47.968907 
L 231.313744 53.672119 
L 232.915985 54.742636 
L 234.518226 51.042734 
L 236.120467 57.614577 
L 237.722707 49.386649 
L 239.324948 54.374833 
L 240.927189 57.444772 
L 242.52943 49.362507 
L 244.131671 55.799867 
L 245.733911 60.743979 
L 247.336152 51.702349 
L 248.938393 61.169302 
L 250.540634 54.40092 
L 252.142874 49.218951 
L 253.745115 56.157948 
L 255.347356 59.916666 
L 256.949597 51.441646 
L 258.551838 55.435629 
L 260.154078 61.514745 
L 261.756319 55.550668 
L 263.35856 61.29941 
L 264.960801 60.476958 
L 266.563041 56.29956 
L 268.165282 60.155333 
L 269.767523 46.016311 
L 271.369764 53.224923 
L 272.972005 44.692545 
L 274.574245 48.346594 
L 276.176486 64.163412 
L 277.778727 57.360841 
L 279.380968 52.293912 
L 280.983209 65.070929 
L 282.585449 55.32869 
L 284.18769 54.479179 
L 285.789931 55.959464 
L 287.392172 48.994704 
L 288.994412 64.603479 
L 290.596653 51.885278 
L 292.198894 58.310486 
L 293.801135 52.510057 
L 295.403376 61.39128 
L 297.005616 53.459863 
L 298.607857 56.51052 
L 300.210098 48.022376 
L 301.812339 56.898576 
L 303.414579 52.334905 
L 305.01682 65.011464 
L 306.619061 61.377022 
L 308.221302 67.460837 
L 309.823543 66.31838 
L 311.425783 63.682675 
L 313.028024 65.260339 
L 314.630265 64.694376 
L 316.232506 64.492004 
L 317.834746 52.991603 
L 319.436987 59.573329 
L 321.039228 62.379163 
L 322.641469 53.554325 
L 324.24371 64.980031 
L 325.84595 52.742404 
L 327.448191 59.76598 
L 329.050432 53.32214 
L 330.652673 59.740542 
L 332.254914 56.196024 
L 333.857154 57.90007 
L 335.459395 55.874237 
L 337.061636 55.643672 
L 338.663877 64.795644 
L 341.868358 62.81923 
L 343.470599 58.959731 
L 345.07284 63.268371 
L 346.675081 69.362232 
L 348.277321 59.422644 
L 349.879562 70.16038 
L 351.481803 63.387947 
L 353.084044 63.911296 
L 354.686284 64.08661 
L 356.288525 66.82423 
L 357.890766 66.329722 
L 359.493007 72.234334 
L 361.095248 59.304201 
L 362.697488 76.839161 
L 364.299729 55.394474 
L 365.90197 69.920579 
L 367.504211 74.041753 
L 369.106451 67.181663 
L 370.708692 70.134456 
L 372.310933 68.729027 
L 373.913174 62.766409 
L 375.515415 65.033176 
L 377.117655 73.085142 
L 378.719896 67.297027 
L 380.322137 74.339884 
L 381.924378 74.804741 
L 383.526619 76.4699 
L 385.128859 76.959385 
L 386.7311 70.72132 
L 388.333341 73.401258 
L 389.935582 67.324734 
L 391.537822 67.818432 
L 393.140063 74.486519 
L 394.742304 66.258429 
L 396.344545 73.259321 
L 397.946786 70.390135 
L 399.549026 78.717386 
L 401.151267 71.816951 
L 402.753508 73.228536 
L 404.355749 78.313451 
L 405.957989 63.79253 
L 407.56023 76.473789 
L 409.162471 67.772092 
L 410.764712 72.546076 
L 412.366953 65.146595 
L 413.969193 73.814104 
L 415.571434 68.637644 
L 418.775916 78.710419 
L 420.378156 63.150414 
L 421.980397 75.818063 
L 423.582638 80.237205 
L 425.184879 69.497687 
L 426.78712 80.23834 
L 428.38936 73.281033 
L 429.991601 84.753565 
L 431.593842 74.894667 
L 433.196083 79.250457 
L 434.798324 80.260213 
L 436.400564 67.081854 
L 438.002805 87.405634 
L 439.605046 75.223745 
L 441.207287 78.905014 
L 442.809527 87.328185 
L 444.411768 74.599938 
L 446.014009 88.97633 
L 447.61625 75.634971 
L 449.218491 87.641222 
L 450.820731 83.510813 
L 452.422972 91.373368 
L 454.025213 81.068245 
L 455.627454 82.762569 
L 457.229694 85.185369 
L 458.831935 75.55574 
L 460.434176 88.174941 
L 462.036417 90.038584 
L 463.638658 84.915917 
L 465.240898 95.468941 
L 466.843139 90.060296 
L 468.44538 91.522109 
L 470.047621 99.545882 
L 471.649861 69.160993 
L 473.252102 236.078182 
L 473.252102 236.078182 
" clip-path="url(#pc948cf0bf0)" style="fill: none; stroke: #ff7f0e; stroke-width: 1.5; stroke-linecap: square"/>
   </g>
   <g id="patch_3">
    <path d="M 54.34625 246.04 
L 54.34625 26.88 
" style="fill: none; stroke: #000000; stroke-width: 0.8; stroke-linejoin: miter; stroke-linecap: square"/>
   </g>
   <g id="patch_4">
    <path d="M 493.2 246.04 
L 493.2 26.88 
" style="fill: none; stroke: #000000; stroke-width: 0.8; stroke-linejoin: miter; stroke-linecap: square"/>
   </g>
   <g id="patch_5">
    <path d="M 54.34625 246.04 
L 493.2 246.04 
" style="fill: none; stroke: #000000; stroke-width: 0.8; stroke-linejoin: miter; stroke-linecap: square"/>
   </g>
   <g id="patch_6">
    <path d="M 54.34625 26.88 
L 493.2 26.88 
" style="fill: none; stroke: #000000; stroke-width: 0.8; stroke-linejoin: miter; stroke-linecap: square"/>
   </g>
   <g id="text_18">
    <!-- Figure 2C — Convergence curves (mean per group) -->
    <g transform="translate(119.512188 20.88) scale(0.12 -0.12)">
     <defs>
      <path id="DejaVuSans-75" d="M 544 1381 
L 544 3500 
L 1119 3500 
L 1119 1403 
Q 1119 906 1312 657 
Q 1506 409 1894 409 
Q 2359 409 2629 706 
Q 2900 1003 2900 1516 
L 2900 3500 
L 3475 3500 
L 3475 0 
L 2900 0 
L 2900 538 
Q 2691 219 2414 64 
Q 2138 -91 1772 -91 
Q 1169 -91 856 284 
Q 544 659 544 1381 
z
M 1991 3584 
L 1991 3584 
z
" transform="scale(0.015625)"/>
      <path id="DejaVuSans-43" d="M 4122 4306 
L 4122 3641 
Q 3803 3938 3442 4084 
Q 3081 4231 2675 4231 
Q 1875 4231 1450 3742 
Q 1025 3253 1025 2328 
Q 1025 1406 1450 917 
Q 1875 428 2675 428 
Q 3081 428 3442 575 
Q 3803 722 4122 1019 
L 4122 359 
Q 3791 134 3420 21 
Q 3050 -91 2638 -91 
Q 1578 -91 968 557 
Q 359 1206 359 2328 
Q 359 3453 968 4101 
Q 1578 4750 2638 4750 
Q 3056 4750 3426 4639 
Q 3797 4528 4122 4306 
z
" transform="scale(0.015625)"/>
      <path id="DejaVuSans-2014" d="M 313 1978 
L 6088 1978 
L 6088 1528 
L 313 1528 
L 313 1978 
z
" transform="scale(0.015625)"/>
      <path id="DejaVuSans-6f" d="M 1959 3097 
Q 1497 3097 1228 2736 
Q 959 2375 959 1747 
Q 959 1119 1226 758 
Q 1494 397 1959 397 
Q 2419 397 2687 759 
Q 2956 1122 2956 1747 
Q 2956 2369 2687 2733 
Q 2419 3097 1959 3097 
z
M 1959 3584 
Q 2709 3584 3137 3096 
Q 3566 2609 3566 1747 
Q 3566 888 3137 398 
Q 2709 -91 1959 -91 
Q 1206 -91 779 398 
Q 353 888 353 1747 
Q 353 2609 779 3096 
Q 1206 3584 1959 3584 
z
" transform="scale(0.015625)"/>
      <path id="DejaVuSans-76" d="M 191 3500 
L 800 3500 
L 1894 563 
L 2988 3500 
L 3597 3500 
L 2284 0 
L 1503 0 
L 191 3500 
z
" transform="scale(0.015625)"/>
     </defs>
     <use xlink:href="#DejaVuSans-46"/>
     <use xlink:href="#DejaVuSans-69" transform="translate(50.269531 0)"/>
     <use xlink:href="#DejaVuSans-67" transform="translate(78.052734 0)"/>
     <use xlink:href="#DejaVuSans-75" transform="translate(141.529297 0)"/>
     <use xlink:href="#DejaVuSans-72" transform="translate(204.908203 0)"/>
     <use xlink:href="#DejaVuSans-65" transform="translate(243.771484 0)"/>
     <use xlink:href="#DejaVuSans-20" transform="translate(305.294922 0)"/>
     <use xlink:href="#DejaVuSans-32" transform="translate(337.082031 0)"/>
     <use xlink:href="#DejaVuSans-43" transform="translate(400.705078 0)"/>
     <use xlink:href="#DejaVuSans-20" transform="translate(470.529297 0)"/>
     <use xlink:href="#DejaVuSans-2014" transform="translate(502.316406 0)"/>
     <use xlink:href="#DejaVuSans-20" transform="translate(602.316406 0)"/>
     <use xlink:href="#DejaVuSans-43" transform="translate(634.103516 0)"/>
     <use xlink:href="#DejaVuSans-6f" transform="translate(703.927734 0)"/>
     <use xlink:href="#DejaVuSans-6e" transform="translate(765.109375 0)"/>
     <use xlink:href="#DejaVuSans-76" transform="translate(828.488281 0)"/>
     <use xlink:href="#DejaVuSans-65" transform="translate(887.667969 0)"/>
     <use xlink:href="#DejaVuSans-72" transform="translate(949.191406 0)"/>
     <use xlink:href="#DejaVuSans-67" transform="translate(988.554688 0)"/>
     <use xlink:href="#DejaVuSans-65" transform="translate(1052.03125 0)"/>
     <use xlink:href="#DejaVuSans-6e" transform="translate(1113.554688 0)"/>
     <use xlink:href="#DejaVuSans-63" transform="translate(1176.933594 0)"/>
     <use xlink:href="#DejaVuSans-65" transform="translate(1231.914062 0)"/>
     <use xlink:href="#DejaVuSans-20" transform="translate(1293.4375 0)"/>
     <use xlink:href="#DejaVuSans-63" transform="translate(1325.224609 0)"/>
     <use xlink:href="#DejaVuSans-75" transform="translate(1380.205078 0)"/>
     <use xlink:href="#DejaVuSans-72" transform="translate(1443.583984 0)"/>
     <use xlink:href="#DejaVuSans-76" transform="translate(1484.697266 0)"/>
     <use xlink:href="#DejaVuSans-65" transform="translate(1543.876953 0)"/>
     <use xlink:href="#DejaVuSans-73" transform="translate(1605.400391 0)"/>
     <use xlink:href="#DejaVuSans-20" transform="translate(1657.5 0)"/>
     <use xlink:href="#DejaVuSans-28" transform="translate(1689.287109 0)"/>
     <use xlink:href="#DejaVuSans-6d" transform="translate(1728.300781 0)"/>
     <use xlink:href="#DejaVuSans-65" transform="translate(1825.712891 0)"/>
     <use xlink:href="#DejaVuSans-61" transform="translate(1887.236328 0)"/>
     <use xlink:href="#DejaVuSans-6e" transform="translate(1948.515625 0)"/>
     <use xlink:href="#DejaVuSans-20" transform="translate(2011.894531 0)"/>
     <use xlink:href="#DejaVuSans-70" transform="translate(2043.681641 0)"/>
     <use xlink:href="#DejaVuSans-65" transform="translate(2107.158203 0)"/>
     <use xlink:href="#DejaVuSans-72" transform="translate(2168.681641 0)"/>
     <use xlink:href="#DejaVuSans-20" transform="translate(2209.794922 0)"/>
     <use xlink:href="#DejaVuSans-67" transform="translate(2241.582031 0)"/>
     <use xlink:href="#DejaVuSans-72" transform="translate(2305.058594 0)"/>
     <use xlink:href="#DejaVuSans-6f" transform="translate(2343.921875 0)"/>
     <use xlink:href="#DejaVuSans-75" transform="translate(2405.103516 0)"/>
     <use xlink:href="#DejaVuSans-70" transform="translate(2468.482422 0)"/>
     <use xlink:href="#DejaVuSans-29" transform="translate(2531.958984 0)"/>
    </g>
   </g>
   <g id="legend_1">
    <g id="patch_7">
     <path d="M 61.34625 241.04 
L 177.263438 241.04 
Q 179.263438 241.04 179.263438 239.04 
L 179.263438 208.836875 
Q 179.263438 206.836875 177.263438 206.836875 
L 61.34625 206.836875 
Q 59.34625 206.836875 59.34625 208.836875 
L 59.34625 239.04 
Q 59.34625 241.04 61.34625 241.04 
z
" style="fill: #ffffff; opacity: 0.8; stroke: #cccccc; stroke-linejoin: miter"/>
    </g>
    <g id="line2d_18">
     <path d="M 63.34625 215.85875 
L 73.34625 215.85875 
L 83.34625 215.85875 
" style="fill: none; stroke: #1f77b4; stroke-width: 1.5; stroke-linecap: square"/>
    </g>
    <g id="text_19">
     <!-- Quantum-init (Å) -->
     <g transform="translate(91.34625 219.35875) scale(0.1 -0.1)">
      <defs>
       <path id="DejaVuSans-51" d="M 2522 4238 
Q 1834 4238 1429 3725 
Q 1025 3213 1025 2328 
Q 1025 1447 1429 934 
Q 1834 422 2522 422 
Q 3209 422 3611 934 
Q 4013 1447 4013 2328 
Q 4013 3213 3611 3725 
Q 3209 4238 2522 4238 
z
M 3406 84 
L 4238 -825 
L 3475 -825 
L 2784 -78 
Q 2681 -84 2626 -87 
Q 2572 -91 2522 -91 
Q 1538 -91 948 567 
Q 359 1225 359 2328 
Q 359 3434 948 4092 
Q 1538 4750 2522 4750 
Q 3503 4750 4090 4092 
Q 4678 3434 4678 2328 
Q 4678 1516 4351 937 
Q 4025 359 3406 84 
z
" transform="scale(0.015625)"/>
       <path id="DejaVuSans-2d" d="M 313 2009 
L 1997 2009 
L 1997 1497 
L 313 1497 
L 313 2009 
z
" transform="scale(0.015625)"/>
      </defs>
      <use xlink:href="#DejaVuSans-51"/>
      <use xlink:href="#DejaVuSans-75" transform="translate(78.710938 0)"/>
      <use xlink:href="#DejaVuSans-61" transform="translate(142.089844 0)"/>
      <use xlink:href="#DejaVuSans-6e" transform="translate(203.369141 0)"/>
      <use xlink:href="#DejaVuSans-74" transform="translate(266.748047 0)"/>
      <use xlink:href="#DejaVuSans-75" transform="translate(305.957031 0)"/>
      <use xlink:href="#DejaVuSans-6d" transform="translate(369.335938 0)"/>
      <use xlink:href="#DejaVuSans-2d" transform="translate(466.748047 0)"/>
      <use xlink:href="#DejaVuSans-69" transform="translate(502.832031 0)"/>
      <use xlink:href="#DejaVuSans-6e" transform="translate(530.615234 0)"/>
      <use xlink:href="#DejaVuSans-69" transform="translate(593.994141 0)"/>
      <use xlink:href="#DejaVuSans-74" transform="translate(621.777344 0)"/>
      <use xlink:href="#DejaVuSans-20" transform="translate(660.986328 0)"/>
      <use xlink:href="#DejaVuSans-28" transform="translate(692.773438 0)"/>
      <use xlink:href="#DejaVuSans-c5" transform="translate(731.787109 0)"/>
      <use xlink:href="#DejaVuSans-29" transform="translate(800.195312 0)"/>
     </g>
    </g>
    <g id="line2d_19">
     <path d="M 63.34625 231.460312 
L 73.34625 231.460312 
L 83.34625 231.460312 
" style="fill: none; stroke: #ff7f0e; stroke-width: 1.5; stroke-linecap: square"/>
    </g>
    <g id="text_20">
     <!-- Control (Å) -->
     <g transform="translate(91.34625 234.960312) scale(0.1 -0.1)">
      <defs>
       <path id="DejaVuSans-6c" d="M 603 4863 
L 1178 4863 
L 1178 0 
L 603 0 
L 603 4863 
z
" transform="scale(0.015625)"/>
      </defs>
      <use xlink:href="#DejaVuSans-43"/>
      <use xlink:href="#DejaVuSans-6f" transform="translate(69.824219 0)"/>
      <use xlink:href="#DejaVuSans-6e" transform="translate(131.005859 0)"/>
      <use xlink:href="#DejaVuSans-74" transform="translate(194.384766 0)"/>
      <use xlink:href="#DejaVuSans-72" transform="translate(233.59375 0)"/>
      <use xlink:href="#DejaVuSans-6f" transform="translate(272.457031 0)"/>
      <use xlink:href="#DejaVuSans-6c" transform="translate(333.638672 0)"/>
      <use xlink:href="#DejaVuSans-20" transform="translate(361.421875 0)"/>
      <use xlink:href="#DejaVuSans-28" transform="translate(393.208984 0)"/>
      <use xlink:href="#DejaVuSans-c5" transform="translate(432.222656 0)"/>
      <use xlink:href="#DejaVuSans-29" transform="translate(500.630859 0)"/>
     </g>
    </g>
   </g>
  </g>
 </g>
 <defs>
  <clipPath id="pc948cf0bf0">
   <rect x="54.34625" y="26.88" width="438.85375" height="219.16"/>
  </clipPath>
 </defs>
</svg>
